<svg xmlns="http://www.w3.org/2000/svg" xmlns:xlink="http://www.w3.org/1999/xlink" viewBox="0 0 1172.2 999.55"><defs><linearGradient id="c" x1="-502.7" y1="824.61" x2="424.82" y2="824.61" xlink:href="#a"/><linearGradient id="Y" x1="-502.7" y1="485" x2="424.82" y2="485" xlink:href="#a"/><linearGradient id="d" x1="-502.7" y1="798.32" x2="424.82" y2="798.32" xlink:href="#a"/><linearGradient id="e" x1="-502.7" y1="771.16" x2="424.82" y2="771.16" xlink:href="#a"/><linearGradient id="f" x1="-502.7" y1="838.2" x2="424.82" y2="838.2" xlink:href="#a"/><linearGradient id="g" x1="-502.7" y1="811.03" x2="424.82" y2="811.03" xlink:href="#a"/><linearGradient id="h" x1="-502.7" y1="784.74" x2="424.82" y2="784.74" xlink:href="#a"/><linearGradient id="i" x1="-502.7" y1="647.93" x2="424.82" y2="647.93" xlink:href="#a"/><linearGradient id="j" x1="-502.7" y1="620.77" x2="424.82" y2="620.77" xlink:href="#a"/><linearGradient id="k" x1="-502.7" y1="866.4" x2="424.82" y2="866.4" xlink:href="#a"/><linearGradient id="l" x1="-502.7" y1="757.58" x2="424.82" y2="757.58" xlink:href="#a"/><linearGradient id="m" x1="-502.7" y1="675.09" x2="424.82" y2="675.09" xlink:href="#a"/><linearGradient id="n" x1="-502.7" y1="634.35" x2="424.82" y2="634.35" xlink:href="#a"/><linearGradient id="o" x1="-502.7" y1="688.67" x2="424.82" y2="688.67" xlink:href="#a"/><linearGradient id="p" x1="-502.7" y1="744" x2="424.82" y2="744" xlink:href="#a"/><linearGradient id="q" x1="-502.7" y1="730.42" x2="424.82" y2="730.42" xlink:href="#a"/><linearGradient id="r" x1="-502.7" y1="715.83" x2="424.82" y2="715.83" xlink:href="#a"/><linearGradient id="s" x1="-502.7" y1="702.25" x2="424.82" y2="702.25" xlink:href="#a"/><linearGradient id="t" x1="-502.7" y1="661.51" x2="424.82" y2="661.51" xlink:href="#a"/><linearGradient id="u" x1="-502.7" y1="925.8" x2="424.82" y2="925.8" xlink:href="#a"/><linearGradient id="v" x1="-502.7" y1="939.84" x2="424.82" y2="939.84" xlink:href="#a"/><linearGradient id="w" x1="-502.7" y1="919.03" x2="424.82" y2="919.03" xlink:href="#a"/><linearGradient id="x" x1="-502.7" y1="933.07" x2="424.82" y2="933.07" xlink:href="#a"/><linearGradient id="y" x1="-502.7" y1="912.26" x2="424.82" y2="912.26" xlink:href="#a"/><linearGradient id="z" x1="-502.7" y1="891.69" x2="424.82" y2="891.69" xlink:href="#a"/><linearGradient id="A" x1="-502.7" y1="905.23" x2="424.82" y2="905.23" xlink:href="#a"/><linearGradient id="B" x1="-502.7" y1="898.46" x2="424.82" y2="898.46" xlink:href="#a"/><linearGradient id="C" x1="-502.7" y1="960.15" x2="424.82" y2="960.15" xlink:href="#a"/><linearGradient id="D" x1="-502.7" y1="980.02" x2="424.82" y2="980.02" xlink:href="#a"/><linearGradient id="E" x1="-502.7" y1="986.79" x2="424.82" y2="986.79" xlink:href="#a"/><linearGradient id="F" x1="-502.7" y1="993.56" x2="424.82" y2="993.56" xlink:href="#a"/><linearGradient id="G" x1="-502.7" y1="999.87" x2="424.82" y2="999.87" xlink:href="#a"/><linearGradient id="H" x1="-502.7" y1="946.61" x2="424.82" y2="946.61" xlink:href="#a"/><linearGradient id="I" x1="-502.7" y1="879.99" x2="424.82" y2="879.99" xlink:href="#a"/><linearGradient id="J" x1="-502.7" y1="973.23" x2="424.82" y2="973.23" xlink:href="#a"/><linearGradient id="K" x1="-502.7" y1="966.92" x2="424.82" y2="966.92" xlink:href="#a"/><linearGradient id="L" x1="-502.7" y1="953.38" x2="424.82" y2="953.38" xlink:href="#a"/><linearGradient id="M" x1="-502.7" y1="132.31" x2="424.82" y2="132.31" xlink:href="#a"/><linearGradient id="N" x1="-502.7" y1="118.74" x2="424.82" y2="118.74" xlink:href="#a"/><linearGradient id="O" x1="-502.7" y1="145.88" x2="424.82" y2="145.88" xlink:href="#a"/><linearGradient id="P" x1="-502.7" y1="158.57" x2="424.82" y2="158.57" xlink:href="#a"/><linearGradient id="Q" x1="-502.7" y1="227.41" x2="424.82" y2="227.41" xlink:href="#a"/><linearGradient id="R" x1="-502.7" y1="607.19" x2="424.82" y2="607.19" xlink:href="#a"/><linearGradient id="S" x1="-502.7" y1="213.85" x2="424.82" y2="213.85" xlink:href="#a"/><linearGradient id="T" x1="-502.7" y1="172.14" x2="424.82" y2="172.14" xlink:href="#a"/><linearGradient id="U" x1="-502.7" y1="185.7" x2="424.82" y2="185.7" xlink:href="#a"/><linearGradient id="V" x1="-502.7" y1="240.98" x2="424.82" y2="240.98" xlink:href="#a"/><linearGradient id="W" x1="-502.7" y1="200.28" x2="424.82" y2="200.28" xlink:href="#a"/><linearGradient id="X" x1="-502.7" y1="254.54" x2="424.82" y2="254.54" xlink:href="#a"/><linearGradient id="a" x1="-502.7" y1="852.81" x2="424.82" y2="852.81" gradientTransform="rotate(180 226.095 500.76)" gradientUnits="userSpaceOnUse"><stop offset="0" stop-color="#fff"/><stop offset="1" stop-color="#fff" stop-opacity="0"/></linearGradient><linearGradient id="Z" x1="-502.7" y1="431.58" x2="424.82" y2="431.58" xlink:href="#a"/><linearGradient id="aa" x1="-502.7" y1="471.43" x2="424.82" y2="471.43" xlink:href="#a"/><linearGradient id="ab" x1="-502.7" y1="457.82" x2="424.82" y2="457.82" xlink:href="#a"/><linearGradient id="ac" x1="-502.7" y1="445.16" x2="424.82" y2="445.16" xlink:href="#a"/><linearGradient id="ad" x1="-502.7" y1="498.57" x2="424.82" y2="498.57" xlink:href="#a"/><linearGradient id="ae" x1="-502.7" y1="580.03" x2="424.82" y2="580.03" xlink:href="#a"/><linearGradient id="af" x1="-502.7" y1="593.61" x2="424.82" y2="593.61" xlink:href="#a"/><linearGradient id="ag" x1="-502.7" y1="566.45" x2="424.82" y2="566.45" xlink:href="#a"/><linearGradient id="ah" x1="-502.7" y1="525.72" x2="424.82" y2="525.72" xlink:href="#a"/><linearGradient id="ai" x1="-502.7" y1="552.88" x2="424.82" y2="552.88" xlink:href="#a"/><linearGradient id="aj" x1="-502.7" y1="539.3" x2="424.82" y2="539.3" xlink:href="#a"/><linearGradient id="ak" x1="-502.7" y1="512.14" x2="424.82" y2="512.14" xlink:href="#a"/><linearGradient id="al" x1="-502.7" y1="295.78" x2="424.82" y2="295.78" xlink:href="#a"/><linearGradient id="am" x1="-502.7" y1="309.34" x2="424.82" y2="309.34" xlink:href="#a"/><linearGradient id="an" x1="-502.7" y1="337.49" x2="424.82" y2="337.49" xlink:href="#a"/><linearGradient id="ao" x1="-502.7" y1="323.92" x2="424.82" y2="323.92" xlink:href="#a"/><linearGradient id="ap" x1="-502.7" y1="418.01" x2="424.82" y2="418.01" xlink:href="#a"/><linearGradient id="aq" x1="-502.7" y1="282.21" x2="424.82" y2="282.21" xlink:href="#a"/><linearGradient id="ar" x1="-502.7" y1="268.11" x2="424.82" y2="268.11" xlink:href="#a"/><linearGradient id="as" x1="-502.7" y1="404.4" x2="424.82" y2="404.4" xlink:href="#a"/><linearGradient id="at" x1="-502.7" y1="391.75" x2="424.82" y2="391.75" xlink:href="#a"/><linearGradient id="au" x1="-502.7" y1="378.18" x2="424.82" y2="378.18" xlink:href="#a"/><linearGradient id="av" x1="-502.7" y1="364.62" x2="424.82" y2="364.62" xlink:href="#a"/><linearGradient id="aw" x1="-502.7" y1="351.05" x2="424.82" y2="351.05" xlink:href="#a"/><linearGradient id="b" x1="786.49" y1="-622.2" x2="786.49" y2="-139.07" gradientTransform="rotate(180 409.775 -160.09)" gradientUnits="userSpaceOnUse"><stop offset="0" stop-color="#f76b1c"/><stop offset="1" stop-color="#fad961"/></linearGradient><linearGradient id="ax" x1="621.01" y1="-622.2" x2="621.01" y2="-139.07" xlink:href="#b"/><linearGradient id="ay" x1="593.99" y1="-622.2" x2="593.99" y2="-139.07" xlink:href="#b"/><linearGradient id="az" x1="729.06" y1="-622.2" x2="729.06" y2="-139.07" xlink:href="#b"/><linearGradient id="aA" x1="702.04" y1="-622.2" x2="702.04" y2="-139.07" xlink:href="#b"/><linearGradient id="aB" x1="756.07" y1="-622.2" x2="756.07" y2="-139.07" xlink:href="#b"/><linearGradient id="aC" x1="777.48" y1="-622.2" x2="777.48" y2="-139.07" xlink:href="#b"/><linearGradient id="aD" x1="648.02" y1="-622.2" x2="648.02" y2="-139.07" xlink:href="#b"/><linearGradient id="aE" x1="675.03" y1="-622.2" x2="675.03" y2="-139.07" xlink:href="#b"/><linearGradient id="aF" x1="296.86" y1="-622.2" x2="296.86" y2="-139.07" xlink:href="#b"/><linearGradient id="aG" x1="269.84" y1="-622.2" x2="269.84" y2="-139.07" xlink:href="#b"/><linearGradient id="aH" x1="323.87" y1="-622.2" x2="323.87" y2="-139.07" xlink:href="#b"/><linearGradient id="aI" x1="566.98" y1="-622.2" x2="566.98" y2="-139.07" xlink:href="#b"/><linearGradient id="aJ" x1="242.83" y1="-622.2" x2="242.83" y2="-139.07" xlink:href="#b"/><linearGradient id="aK" x1="350.88" y1="-622.2" x2="350.88" y2="-139.07" xlink:href="#b"/><linearGradient id="aL" x1="215.82" y1="-622.2" x2="215.82" y2="-139.07" xlink:href="#b"/><linearGradient id="aM" x1="188.81" y1="-622.2" x2="188.81" y2="-139.07" xlink:href="#b"/><linearGradient id="aN" x1="485.94" y1="-622.2" x2="485.94" y2="-139.07" xlink:href="#b"/><linearGradient id="aO" x1="512.96" y1="-622.2" x2="512.96" y2="-139.07" xlink:href="#b"/><linearGradient id="aP" x1="539.97" y1="-622.2" x2="539.97" y2="-139.07" xlink:href="#b"/><linearGradient id="aQ" x1="458.93" y1="-622.2" x2="458.93" y2="-139.07" xlink:href="#b"/><linearGradient id="aR" x1="404.91" y1="-622.2" x2="404.91" y2="-139.07" xlink:href="#b"/><linearGradient id="aS" x1="431.92" y1="-622.2" x2="431.92" y2="-139.07" xlink:href="#b"/><linearGradient id="aT" x1="377.89" y1="-622.2" x2="377.89" y2="-139.07" xlink:href="#b"/></defs><g data-name="Right Side"><g opacity=".12"><path d="M880.04 84.27c35.19 13.48 70.65 26.59 106.59 39 9 3.05 18 6.19 27.06 9.13l13.58 4.48c4.54 1.47 9.11 2.88 13.67 4.33q27.32 8.7 55.23 16.31c18.6 5 37.44 9.61 56.55 13.37l14.41 2.62 5.06.75V165l-7.1-1-14.64-2.61c-2.45-.4-4.84-1-7.25-1.48l-7.21-1.55c-2.4-.54-4.83-1-7.19-1.59l-7.12-1.77-7.12-1.74-3.56-.88-3.51-.94-14.07-3.78q-27.94-7.89-55.29-16.74c-4.55-1.48-9.12-2.93-13.65-4.44l-13.57-4.57c-9.07-3-18-6.21-27-9.33C948.02 99.94 912.64 86.63 877.55 73s-69.87-27.79-104.42-42.13Q736.53 15.66 700.28 0h-27.43q50.93 21.74 102.42 42.75Q827.29 64 880.04 84.27z" fill="none"/><path d="M879.3 70.63c35.19 13.47 70.66 26.58 106.6 39 9 3.05 18 6.19 27.05 9.13l13.59 4.47c4.54 1.47 9.11 2.89 13.66 4.34 18.21 5.8 36.66 11.19 55.23 16.3s37.45 9.61 56.56 13.38l14.4 2.61 5.8.87v-9.28l-7.84-1.14-14.63-2.62c-2.45-.4-4.84-1-7.25-1.47l-7.21-1.56c-2.4-.53-4.83-1-7.2-1.59l-7.11-1.74-7.12-1.74-3.56-.87-3.52-.95-14.06-3.77q-27.94-7.89-55.29-16.74c-4.55-1.48-9.12-2.94-13.65-4.44l-13.56-4.6c-9.07-3-18-6.22-27-9.33-35.9-12.6-71.28-25.89-106.37-39.58s-69.87-27.74-104.43-42.08Q751.87 8.69 731.46 0h-27.14q35 14.73 70.22 29.1 52.02 21.24 104.76 41.53zm-103.26-13.7q52 21.24 104.76 41.52c35.19 13.48 70.65 26.59 106.59 39 9 3 18 6.19 27.06 9.13l13.58 4.42c4.54 1.47 9.11 2.89 13.67 4.34 18.21 5.8 36.65 11.19 55.23 16.3s37.44 9.61 56.55 13.38l14.41 2.61 4.3.64v-9.8l-6.37-.93-14.63-2.54c-2.45-.4-4.83-1-7.24-1.47l-7.22-1.56c-2.39-.53-4.83-1-7.19-1.59l-7.12-1.74-7.12-1.74-3.55-.87-3.56-1.03-14-3.75q-27.94-7.87-55.28-16.73c-4.55-1.48-9.13-2.94-13.66-4.44l-13.57-4.57c-9.07-3-18-6.22-27-9.33-35.89-12.6-71.27-25.91-106.36-39.58s-69.9-27.74-104.46-42.08S705.03 15.49 670.92.61L669.54 0h-28.89q15.93 6.9 31.91 13.74 51.45 21.98 103.48 43.19zm1.46 27.29q52 21.24 104.76 41.52c35.19 13.48 70.66 26.59 106.6 39 9 3.05 18 6.19 27.05 9.13l13.59 4.47c4.54 1.47 9.11 2.89 13.66 4.33 18.21 5.81 36.66 11.2 55.23 16.31s37.45 9.61 56.56 13.38l14.4 2.61 2.84.42v-9.26l-4.88-.71-14.63-2.62c-2.46-.4-4.84-1-7.25-1.47l-7.24-1.58c-2.4-.53-4.83-1-7.2-1.59l-7.12-1.74-7.11-1.74-3.56-.87-3.52-.95-14.07-3.78q-27.93-7.89-55.28-16.74c-4.55-1.48-9.12-2.93-13.66-4.43l-13.48-4.58c-9.07-3-18-6.21-27-9.32-35.9-12.6-71.27-25.91-106.36-39.58s-69.92-27.75-104.48-42.09-68.83-29-102.93-43.9Q640.19 14.36 608.19 0h-28.14q46.68 20.88 94 41 51.41 22 103.45 43.22z" fill="none"/><path d="M1172.19 990.86c-.85-.19-1.71-.38-2.55-.59l-7.12-1.74-7.12-1.74-3.55-.88-3.52-.94-14.07-3.78q-27.95-7.89-55.28-16.74c-4.55-1.48-9.13-2.93-13.66-4.44l-13.57-4.57c-9.07-3-18-6.21-27-9.33-35.89-12.59-71.27-25.9-106.36-39.57s-69.86-27.75-104.42-42.09-68.83-29-102.94-43.9-68-30-101.64-45.42l-.2-.13.3-.34.24.11q50.73 22.8 102.22 44.71t103.47 43.18q52 21.24 104.77 41.53c35.19 13.47 70.65 26.58 106.59 39 9 3.05 18 6.19 27.06 9.13l13.58 4.47c4.54 1.47 9.11 2.89 13.67 4.34 18.21 5.8 36.65 11.19 55.23 16.3q17.8 4.85 35.91 9v-9c-1.1-.24-2.2-.49-3.28-.76l-7.12-1.74-7.12-1.74-3.56-.87-3.51-.95-14.07-3.77q-27.95-7.89-55.29-16.74c-4.55-1.48-9.12-2.94-13.65-4.44l-13.57-4.57c-9.07-3-18-6.21-27-9.33-35.89-12.6-71.27-25.91-106.36-39.58s-69.87-27.74-104.42-42.08-68.83-29-102.94-43.91-68-30-101.64-45.41l-.24-.11.3-.34.24.1q50.68 22.81 102.19 44.66T814.65 849q52 21.23 104.76 41.52c35.19 13.48 70.66 26.59 106.6 39 9 3.05 18 6.19 27.05 9.13l13.59 4.47c4.54 1.47 9.11 2.89 13.66 4.33 18.21 5.8 36.66 11.2 55.23 16.31 12.11 3.29 24.33 6.37 36.65 9.15v-9c-1.34-.29-2.69-.58-4-.91l-7.12-1.74-7.11-1.74-3.56-.88-3.52-.94-14.09-3.8q-27.93-7.89-55.28-16.74c-4.55-1.48-9.12-2.93-13.65-4.44l-13.57-4.57c-9.07-3-18-6.21-27-9.33-35.9-12.59-71.27-25.9-106.36-39.57s-69.87-27.75-104.43-42.09-68.83-29-102.93-43.9-68-30-101.65-45.42l-.24-.11.31-.34.24.11q50.71 22.8 102.22 44.71t103.47 43.18q52 21.24 104.76 41.53c35.19 13.47 70.65 26.59 106.6 39 9 3.05 18 6.19 27.05 9.13l13.59 4.47c4.53 1.47 9.11 2.89 13.66 4.34 18.21 5.8 36.65 11.19 55.23 16.3q18.52 5 37.38 9.32v-8.19c-1.57-.33-3.15-.66-4.7-1l-7.12-1.74-7.12-1.74-3.56-.88-3.51-.94-14.07-3.78q-27.95-7.89-55.28-16.74c-4.56-1.48-9.13-2.93-13.66-4.44l-13.57-4.57c-9.07-3-18-6.21-27-9.33-35.89-12.59-71.27-25.9-106.36-39.57s-69.86-27.75-104.42-42.09-68.83-29-102.94-43.9-68-30-101.64-45.42l-.24-.11.3-.34.24.11q50.73 22.8 102.22 44.71t103.43 43.1q52 21.24 104.77 41.53c35.19 13.47 70.65 26.59 106.59 39 9 3 18 6.19 27.05 9.13l13.59 4.44c4.54 1.47 9.11 2.89 13.67 4.34 18.21 5.8 36.65 11.19 55.23 16.3q18.85 5.13 38.06 9.47v-9.06c-1.82-.38-3.64-.76-5.43-1.21l-7.12-1.74-7.12-1.74-3.56-.87-3.51-1-14.07-3.77q-27.95-7.89-55.29-16.74c-4.55-1.48-9.12-2.93-13.65-4.44l-13.57-4.57c-9.07-3-18-6.21-27-9.33-35.89-12.59-71.27-25.91-106.36-39.58s-69.87-27.74-104.42-42.08-68.83-29-102.94-43.91-68-30-101.64-45.41l-.24-.11.3-.34.24.11q50.72 22.8 102.22 44.7T812.5 809q52 21.22 104.76 41.52c35.19 13.48 70.66 26.59 106.6 39 9 3 18 6.19 27.05 9.13l13.59 4.47c4.54 1.47 9.11 2.89 13.66 4.33 18.21 5.8 36.66 11.2 55.23 16.31 12.8 3.44 25.8 6.68 38.8 9.59v-9.06c-2.06-.45-4.14-.86-6.17-1.37l-7.12-1.74-7.11-1.74-3.56-.88-3.52-.94-14.07-3.78q-27.93-7.84-55.28-16.74c-4.55-1.48-9.12-2.93-13.65-4.44l-13.52-4.57c-9.07-3-18-6.21-27-9.33-35.9-12.59-71.27-25.9-106.36-39.57s-69.87-27.75-104.43-42.09-68.83-29-102.93-43.9-68-30-101.65-45.42l-.24-.11.31-.34.24.11q50.72 22.8 102.22 44.71t103.47 43.18q52 21.24 104.76 41.53c35.19 13.47 70.65 26.59 106.6 39 9 3 18 6.19 27.05 9.13l13.59 4.47c4.53 1.47 9.11 2.89 13.66 4.34 18.21 5.8 36.65 11.19 55.23 16.3 13 3.55 26.23 6.85 39.53 9.8v-10.1c-2.32-.52-4.67-1-7-1.54l-7.12-1.74-7.12-1.74-3.56-.88-3.51-.94-14.07-3.78q-27.95-7.89-55.29-16.74c-4.55-1.48-9.12-2.93-13.65-4.44l-13.57-4.57c-9.07-3-18-6.21-27-9.33-35.89-12.59-71.27-25.9-106.36-39.57s-69.87-27.75-104.42-42.09-68.83-29-102.94-43.91-68-30-101.64-45.41l-.24-.11.3-.34.24.11q50.73 22.8 102.22 44.71t103.47 43.18q52 21.24 104.76 41.52c35.19 13.48 70.66 26.59 106.6 39 9 3.05 18 6.19 27.05 9.13l13.59 4.47c4.54 1.47 9.11 2.89 13.66 4.34 18.21 5.8 36.66 11.19 55.23 16.3 13.32 3.62 26.75 7 40.32 10v-9.08l-.49-.11c-2.4-.53-4.83-1-7.2-1.59l-7.11-1.74-7.12-1.74-3.56-.87-3.52-1-14.06-3.78q-27.94-7.88-55.29-16.72c-4.55-1.49-9.12-2.94-13.65-4.44l-13.57-4.57c-9.07-3-18-6.22-27-9.33-35.89-12.6-71.27-25.91-106.36-39.58s-69.87-27.74-104.43-42.08-68.83-29-102.93-43.91-68-30-101.65-45.41l-.23-.11.3-.34.24.1q50.72 22.82 102.22 44.71T810.25 767q52 21.22 104.76 41.52c35.19 13.48 70.66 26.59 106.6 39 9 3.05 18 6.19 27.05 9.13l13.59 4.48c4.54 1.47 9.11 2.88 13.66 4.33 18.21 5.8 36.66 11.2 55.23 16.3 13.55 3.69 27.24 7.1 41 10.14v-9.08l-1.22-.26c-2.4-.54-4.83-1-7.2-1.59l-7.12-1.74-7.11-1.74-3.56-.88-3.52-.94-14.07-3.78q-27.93-7.89-55.28-16.74c-4.55-1.48-9.12-2.93-13.66-4.44l-13.56-4.57c-9.07-3-18-6.21-27-9.33-35.89-12.59-71.26-25.9-106.35-39.57s-69.87-27.75-104.43-42.09-68.83-29-102.93-43.91-68-30-101.65-45.41l-.24-.11.31-.34.24.11q50.72 22.8 102.22 44.71t103.47 43.18q52 21.24 104.76 41.52c35.19 13.48 70.65 26.59 106.59 39 9 3 18 6.19 27.06 9.13l13.58 4.47c4.54 1.47 9.12 2.89 13.67 4.34 18.21 5.8 36.65 11.19 55.23 16.3 13.79 3.75 27.72 7.22 41.78 10.3v-9.08l-2-.43c-2.39-.53-4.82-1-7.19-1.59l-7.12-1.74-7.12-1.74-3.55-.87-3.52-1-14.07-3.78q-27.94-7.87-55.28-16.73c-4.55-1.48-9.12-2.94-13.66-4.44l-13.45-4.54c-9.08-3-18-6.22-27-9.33-35.89-12.6-71.27-25.91-106.36-39.58s-69.86-27.74-104.42-42.08-68.83-29-102.94-43.91-68-30-101.64-45.41l-.24-.11.3-.34.25.1q50.72 22.81 102.21 44.71t103.47 43.19q52 21.22 104.77 41.52c35.19 13.48 70.65 26.59 106.59 39 9 3 18 6.19 27.06 9.13l13.58 4.48c4.54 1.47 9.11 2.88 13.67 4.33q27.32 8.7 55.23 16.31c14 3.81 28.2 7.34 42.51 10.46v-9.09l-2.69-.58c-2.4-.54-4.83-1-7.19-1.59l-7.16-1.77-7.12-1.74-3.56-.88-3.51-.94-14.07-3.78q-27.94-7.89-55.29-16.74c-4.55-1.48-9.12-2.93-13.65-4.44l-13.57-4.57c-9.07-3-18-6.21-27-9.33-35.89-12.59-71.23-25.9-106.36-39.52s-69.87-27.8-104.42-42.14-68.83-29-102.94-43.91-68-30-101.64-45.41l-.24-.11.3-.34.24.11q50.73 22.8 102.22 44.71t103.47 43.18q52 21.24 104.76 41.52c35.19 13.48 70.66 26.59 106.6 39 9 3 18 6.19 27 9.13l13.59 4.47c4.54 1.47 9.11 2.89 13.66 4.34 18.21 5.8 36.66 11.19 55.23 16.3 14.27 3.88 28.69 7.46 43.25 10.62v-9.09l-3.42-.74c-2.4-.53-4.83-1-7.2-1.59l-7.11-1.74-7.12-1.74-3.56-.87-3.52-.95-14.02-3.75q-27.94-7.89-55.29-16.74c-4.55-1.48-9.12-2.94-13.65-4.44l-13.57-4.57c-9.07-3-18-6.22-27-9.33-35.89-12.6-71.27-25.91-106.36-39.58s-69.87-27.74-104.43-42.08-68.82-29-102.93-43.91-68-30-101.65-45.41l-.23-.11.3-.34.24.1q50.72 22.82 102.22 44.71t103.47 43.19q52 21.22 104.76 41.52c35.19 13.48 70.66 26.59 106.6 39 9 3 18 6.19 27 9.13l13.59 4.48c4.54 1.47 9.11 2.89 13.66 4.33 18.21 5.8 36.66 11.2 55.23 16.31 14.51 3.94 29.17 7.57 44 10.77v-9.62l-4.18-.9c-2.4-.53-4.83-1-7.2-1.59l-7.12-1.74-7.11-1.74-3.56-.87-3.52-1-14.07-3.78q-27.89-7.91-55.2-16.79c-4.55-1.48-9.12-2.93-13.65-4.43l-13.61-4.57c-9.07-3-18-6.21-27-9.32-35.9-12.6-71.27-25.91-106.36-39.58S839.7 714.37 805.19 700s-68.88-29-103-43.87-68-30-101.65-45.42l-.24-.11.31-.34.24.11q50.71 22.82 102.22 44.71t103.47 43.19q52 21.22 104.76 41.52c35.19 13.47 70.65 26.59 106.6 39 9 3 18 6.19 27 9.13l13.59 4.47c4.53 1.48 9.11 2.89 13.66 4.34q27.32 8.7 55.23 16.3c14.76 4 29.67 7.7 44.74 10.94v-9.08l-4.92-1.06c-2.39-.54-4.82-1-7.19-1.6l-7.12-1.74-7.12-1.74-3.55-.87-3.52-.94-14.07-3.78q-27.94-7.89-55.28-16.74c-4.55-1.48-9.12-2.93-13.66-4.44l-13.5-4.6c-9.07-3-18-6.21-27-9.33-35.89-12.59-71.26-25.9-106.36-39.57s-69.86-27.75-104.42-42.09-68.83-29-102.93-43.91-68-30-101.65-45.41l-.24-.07.31-.34.24.11q50.72 22.8 102.22 44.7t103.47 43.19q52 21.24 104.76 41.52c35.19 13.48 70.65 26.59 106.59 39 9 3 18 6.19 27.06 9.13l13.58 4.47c4.54 1.47 9.11 2.89 13.67 4.33 18.21 5.81 36.65 11.2 55.23 16.31 15 4.08 30.15 7.82 45.47 11.09v-9.08l-5.65-1.22c-2.39-.53-4.83-1-7.19-1.59l-7.16-1.8-7.12-1.74-3.55-.87-3.52-1-14.07-3.78q-27.94-7.89-55.28-16.74c-4.55-1.48-9.13-2.93-13.66-4.43l-13.57-4.58c-9.07-3-18-6.21-27-9.32-35.89-12.6-71.27-25.91-106.36-39.58s-69.86-27.75-104.42-42.09-68.83-29-102.94-43.9-68-30-101.64-45.42l-.24-.1.37-.27.24.11q50.73 22.81 102.22 44.71T805.09 671q52 21.22 104.77 41.52c35.19 13.47 70.65 26.59 106.59 39 9 3 18 6.19 27.06 9.13l13.58 4.47c4.54 1.48 9.11 2.89 13.67 4.34q27.31 8.7 55.23 16.3c15.2 4.1 30.63 7.89 46.2 11.24v-10.12l-6.43-1.39c-2.4-.54-4.83-1-7.2-1.59l-7.12-1.74-7.11-1.74-3.56-.88-3.52-.94-14.06-3.78q-27.94-7.89-55.28-16.74c-4.55-1.48-9.12-2.93-13.66-4.44l-13.56-4.57c-9.07-3-18-6.21-27-9.33-35.89-12.59-71.26-25.9-106.35-39.57s-69.87-27.75-104.43-42.09-68.83-29-102.93-43.9-68-30-101.65-45.42l-.24-.11.31-.34.24.11q50.71 22.8 102.22 44.71t103.47 43.18q52 21.24 104.76 41.53c35.19 13.47 70.65 26.58 106.59 39 9 3.05 18 6.19 27.06 9.13l13.58 4.47c4.54 1.47 9.12 2.89 13.67 4.34 18.21 5.8 36.65 11.19 55.23 16.3 15.49 4.21 31.15 8.07 47 11.42v-9.08l-7.17-1.55c-2.39-.53-4.82-1-7.19-1.59l-7.12-1.74-7.12-1.74-3.55-.87-3.52-.95-14.07-3.77q-27.94-7.89-55.28-16.74c-4.55-1.48-9.12-2.94-13.66-4.44l-13.56-4.57c-9.08-3-18-6.22-27-9.33-35.89-12.6-71.27-25.91-106.36-39.58s-69.9-27.77-104.43-42.11-68.83-29-102.94-43.91-68-30-101.64-45.41l-.24-.11.3-.34.25.1q50.72 22.82 102.21 44.71t103.47 43.19q52 21.23 104.77 41.52c35.19 13.48 70.65 26.59 106.59 39 9 3.06 18 6.2 27.06 9.14l13.58 4.47c4.54 1.47 9.11 2.89 13.67 4.33q27.32 8.7 55.23 16.31c15.69 4.24 31.6 8.16 47.69 11.56v-9.1l-.69-.14-7.21-1.56c-2.4-.54-4.83-1-7.19-1.59l-7.12-1.74-7.12-1.74-3.56-.88-3.51-.94-14.07-3.78q-27.94-7.89-55.29-16.74c-4.55-1.48-9.12-2.93-13.65-4.44l-13.59-4.57c-9.07-3-18-6.21-27-9.33-35.89-12.59-71.27-25.9-106.36-39.57s-69.87-27.75-104.42-42.09-68.83-29-102.94-43.9-68-30-101.64-45.42l-.24-.11.3-.34.24.11q50.73 22.8 102.22 44.71T802.84 629q52 21.24 104.76 41.53c35.19 13.47 70.66 26.58 106.6 39 9 3.05 18 6.19 27.05 9.13l13.59 4.47c4.54 1.47 9.11 2.89 13.66 4.34 18.21 5.8 36.66 11.19 55.23 16.3 16 4.34 32.12 8.31 48.46 11.73v-9.07l-1.42-.31-7.21-1.55c-2.4-.54-4.83-1-7.2-1.6l-7.11-1.74-7.12-1.74-3.56-.87-3.52-1-14.06-3.77q-27.94-7.89-55.29-16.74c-4.55-1.48-9.12-2.94-13.65-4.44l-13.57-4.57c-9.07-3-18-6.21-27-9.33-35.89-12.56-71.29-25.87-106.36-39.54s-69.87-27.74-104.43-42.08-68.82-29-102.93-43.91-68-30-101.65-45.41l-.23-.11.3-.34.24.1q50.72 22.82 102.22 44.71t103.47 43.19q52 21.23 104.76 41.52c35.19 13.48 70.66 26.59 106.6 39 9 3 18 6.19 27.05 9.13l13.59 4.47c4.54 1.47 9.11 2.89 13.66 4.33 18.21 5.8 36.66 11.2 55.23 16.31 16.21 4.4 32.6 8.43 49.19 11.88v-9.07l-2.15-.46-7.21-1.56c-2.4-.53-4.83-1-7.2-1.59l-7.12-1.74-7.11-1.74-3.56-.88-3.52-.94-14.07-3.78q-27.93-7.89-55.28-16.74c-4.55-1.48-9.12-2.93-13.66-4.44l-13.56-4.57c-9.07-3-18-6.21-27-9.33-35.9-12.59-71.27-25.9-106.36-39.57s-69.87-27.75-104.43-42.09-68.83-29-102.93-43.9-68-30-101.65-45.42l-.24-.11.31-.34.24.11q50.72 22.8 102.22 44.71t103.47 43.18Q853.4 623 906.19 643.26c35.19 13.47 70.65 26.59 106.59 39 9 3 18 6.19 27.06 9.13l13.58 4.47c4.54 1.47 9.12 2.89 13.67 4.34 18.21 5.8 36.65 11.19 55.23 16.3 16.44 4.47 33.08 8.55 49.92 12v-9.07l-2.88-.62-7.22-1.55c-2.39-.54-4.82-1-7.19-1.6l-7.12-1.74-7.12-1.74-3.55-.87-3.52-1-14.07-3.77q-27.95-7.89-55.28-16.74c-4.55-1.48-9.12-2.93-13.66-4.44l-13.56-4.57c-9.08-3-18-6.21-27-9.33-35.89-12.6-71.27-25.91-106.36-39.58s-69.92-27.68-104.52-42.02-68.83-29-102.94-43.91-68-30-101.64-45.41l-.24-.11.31-.34.24.1Q645.67 523 697.19 544.9t103.48 43.19q52 21.23 104.76 41.52c35.19 13.48 70.65 26.59 106.59 39 9 3 18 6.19 27.06 9.13l13.58 4.47c4.54 1.47 9.11 2.89 13.67 4.33q27.32 8.7 55.23 16.31c16.63 4.51 33.54 8.64 50.63 12.15v-8.14l-3.57-.77-7.21-1.55c-2.4-.54-4.83-1-7.19-1.6l-7.12-1.74-7.12-1.74-3.56-.87-3.51-.94-14.07-3.78q-27.95-7.87-55.28-16.73c-4.56-1.48-9.13-2.93-13.66-4.44l-13.57-4.57c-9.07-3-18-6.21-27-9.33-35.89-12.59-71.27-25.9-106.36-39.57s-69.87-27.75-104.42-42.09-68.83-29-102.94-43.91-68-30-101.64-45.41l-.24-.11.3-.34.24.11q50.73 22.8 102.22 44.7t103.47 43.19q52 21.24 104.76 41.52c35.19 13.48 70.66 26.59 106.6 39 9 3 18 6.19 27.05 9.13l13.59 4.47c4.54 1.47 9.11 2.89 13.67 4.33 18.2 5.81 36.65 11.2 55.22 16.31 16.91 4.6 34 8.77 51.34 12.32v-9.1l-4.3-.92-7.21-1.56c-2.4-.53-4.83-1-7.2-1.59l-7.12-1.74-7.11-1.74-3.56-.87-3.5-.93-14.07-3.77q-27.93-7.93-55.3-16.78c-4.55-1.48-9.12-2.94-13.66-4.44l-13.56-4.57c-9.07-3-18-6.22-27-9.33-35.9-12.6-71.27-25.91-106.36-39.58s-69.87-27.74-104.43-42.08-68.83-29-102.93-43.91-68-30-101.65-45.41l-.24-.13.31-.34.24.1q50.72 22.82 102.22 44.71t103.43 43.21q52 21.23 104.76 41.52c35.19 13.48 70.65 26.59 106.59 39 9 3.05 18 6.19 27.06 9.13l13.59 4.45c4.54 1.47 9.12 2.89 13.67 4.33q27.31 8.7 55.23 16.31c17.14 4.66 34.5 8.88 52.07 12.47v-9.06c-1.68-.33-3.35-.71-5-1.06l-7.22-1.56c-2.39-.54-4.82-1-7.19-1.59l-7.12-1.74-7.12-1.74-3.55-.88-3.52-.94-14.07-3.78q-27.95-7.89-55.28-16.74c-4.55-1.48-9.12-2.93-13.66-4.44l-13.56-4.57c-9.08-3-18-6.21-27-9.33-35.89-12.59-71.27-25.9-106.36-39.57s-69.86-27.75-104.42-42.09-68.83-29-102.94-43.9-68-30-101.64-45.42l-.24-.11.31-.34.24.11q50.72 22.8 102.21 44.71T798.5 548q52 21.24 104.76 41.53c35.19 13.47 70.65 26.58 106.59 39 9 3.05 18 6.19 27.06 9.13l13.58 4.47c4.54 1.47 9.11 2.89 13.67 4.34 18.21 5.8 36.65 11.19 55.23 16.3 17.38 4.73 35 9 52.8 12.62v-9.06c-1.93-.37-3.84-.81-5.77-1.21l-7.23-1.56c-2.39-.53-4.83-1-7.19-1.59l-7.12-1.74-7.12-1.74-3.56-.87-3.51-1-14.07-3.77q-27.94-7.89-55.28-16.74c-4.56-1.48-9.13-2.94-13.66-4.44l-13.57-4.57c-9.07-3-18-6.22-27-9.33-35.89-12.6-71.27-25.91-106.36-39.58s-69.87-27.74-104.42-42.08-68.83-29-102.94-43.91-68-30-101.64-45.41l-.24-.11.3-.34.24.1q50.75 22.86 102.24 44.76t103.47 43.19q52 21.23 104.77 41.52c35.19 13.48 70.65 26.59 106.59 39 9 3.06 18 6.2 27.05 9.14l13.59 4.47c4.54 1.47 9.11 2.89 13.67 4.33 18.2 5.8 36.65 11.2 55.22 16.31 17.62 4.79 35.47 9.12 53.54 12.76v-8.16c-2.17-.38-4.3-.88-6.45-1.33l-7.21-1.55c-2.4-.54-4.83-1-7.2-1.6l-7.14-1.77-7.12-1.74-3.56-.87-3.52-.94-14.06-3.78q-27.94-7.89-55.29-16.74c-4.55-1.48-9.12-2.93-13.65-4.44l-13.57-4.57c-9.07-3-18-6.21-27-9.33-35.86-12.59-71.23-25.9-106.33-39.57s-69.9-27.75-104.43-42.09-68.82-29-102.93-43.91-68-30-101.64-45.41l-.24-.11.3-.34.24.11q50.72 22.8 102.22 44.7t103.47 43.19q52 21.24 104.76 41.52c35.19 13.48 70.66 26.59 106.6 39 9 3.05 18 6.19 27.05 9.13l13.59 4.47c4.54 1.47 9.11 2.89 13.66 4.33 18.21 5.81 36.66 11.2 55.23 16.31 17.84 4.85 35.91 9.23 54.22 12.9v-9.5l-3.26-.71-7.22-1.55c-2.39-.54-4.82-1-7.19-1.6l-7.12-1.74-7.12-1.74-3.55-.87-3.52-.94-14.02-3.8q-28-7.88-55.33-16.74c-4.55-1.48-9.12-2.93-13.66-4.44l-13.56-4.57c-9.08-3-18-6.21-27-9.33-35.89-12.59-71.27-25.9-106.36-39.57s-69.86-27.75-104.42-42.09-68.83-29-102.94-43.91-68-30-101.64-45.41l-.24-.11.31-.34.24.11q50.72 22.8 102.21 44.7t103.48 43.19q52 21.24 104.76 41.52c35.19 13.48 70.65 26.59 106.59 39 9 3 18 6.19 27.06 9.13l13.58 4.47c4.54 1.47 9.11 2.89 13.67 4.33 18.25 5.79 36.64 11.18 55.25 16.29 16.8 4.57 33.81 8.72 51 12.26v-9.06l-4-.85-7.22-1.56c-2.39-.53-4.83-1-7.19-1.59l-7.12-1.74-7.12-1.74-3.55-.83-3.51-1-14.07-3.78q-27.94-7.89-55.28-16.74c-4.56-1.48-9.13-2.93-13.66-4.43l-13.57-4.58c-9.07-3-18-6.21-27-9.32-35.89-12.6-71.27-25.91-106.36-39.58s-69.86-27.75-104.42-42.09-68.83-29-102.94-43.9-68-30-101.64-45.41l-.24-.11.3-.35.24.11q50.73 22.82 102.22 44.71t103.47 43.19q52 21.22 104.77 41.52c35.19 13.47 70.65 26.59 106.59 39 9 3 18 6.19 27.05 9.13l13.59 4.47c4.54 1.48 9.11 2.89 13.67 4.34 18.2 5.8 36.65 11.2 55.23 16.3 17 4.64 34.29 8.84 51.76 12.41v-9c-1.58-.32-3.15-.68-4.73-1l-7.21-1.55c-2.4-.54-4.83-1-7.19-1.6l-7.12-1.74-7.12-1.74-3.56-.87-3.51-.94-14.07-3.78q-27.94-7.89-55.29-16.74c-4.55-1.48-9.12-2.93-13.65-4.44l-13.55-4.65c-9.07-3-18-6.21-27-9.33-35.89-12.59-71.27-25.9-106.36-39.57s-69.87-27.75-104.43-42.09-68.82-29-102.93-43.91-68-30-101.64-45.41l-.24-.11.3-.34.24.11q50.72 22.8 102.22 44.7t103.47 43.19q52 21.24 104.76 41.52c35.19 13.48 70.66 26.59 106.6 39 9 3 18 6.19 27 9.13l13.59 4.47c4.54 1.47 9.11 2.89 13.66 4.33 18.21 5.81 36.66 11.2 55.23 16.31 17.29 4.7 34.78 9 52.5 12.56v-9.06c-1.83-.35-3.64-.77-5.46-1.15l-7.21-1.56c-2.4-.53-4.83-1-7.2-1.59l-7.1-1.76-7.11-1.74-3.56-.87-3.52-.95-14.07-3.78q-27.93-7.89-55.28-16.74c-4.55-1.48-9.12-2.93-13.65-4.43l-13.57-4.58c-9.07-3-18-6.21-27-9.32-35.89-12.6-71.24-25.87-106.35-39.58s-69.89-27.75-104.43-42.08-68.83-29-102.93-43.91-68-30-101.65-45.41l-.24-.11.31-.35.24.11q50.72 22.82 102.22 44.71t103.47 43.19q52 21.22 104.76 41.52c35.19 13.47 70.65 26.59 106.6 39 9 3.05 18 6.19 27.05 9.13l13.58 4.47c4.54 1.48 9.12 2.89 13.67 4.34q27.32 8.7 55.23 16.3c17.52 4.77 35.26 9.08 53.23 12.71v-9.07c-2.08-.38-4.13-.85-6.19-1.29l-7.22-1.55c-2.39-.54-4.82-1-7.19-1.6l-7.12-1.74-7.12-1.74-3.55-.87-3.52-.94-14.09-3.81q-27.94-7.89-55.28-16.74c-4.55-1.48-9.12-2.93-13.66-4.44l-13.56-4.57c-9.07-3-18-6.21-27-9.33-35.89-12.59-71.26-25.9-106.36-39.57s-69.86-27.75-104.42-42.09-68.83-29-102.93-43.91-68-30-101.65-45.41l-.24-.11.31-.34.24.11q50.71 22.8 102.22 44.7t103.47 43.19q52 21.24 104.76 41.52c35.19 13.48 70.65 26.59 106.59 39 9 3.05 18 6.19 27.06 9.13l13.58 4.47c4.54 1.47 9.11 2.89 13.67 4.34 18.2 5.75 36.66 11.17 55.2 16.28 17.76 4.83 35.74 9.19 54 12.85v-9.09c-2.34-.39-4.62-.93-6.92-1.41l-7.22-1.56c-2.39-.53-4.83-1-7.19-1.59l-7.12-1.73-7.12-1.74-3.55-.87-3.52-1-14.07-3.78q-27.94-7.89-55.28-16.74c-4.55-1.48-9.13-2.93-13.66-4.43l-13.57-4.58c-9.07-3-18-6.21-27-9.32C970.08 511 934.7 497.67 899.61 484s-69.86-27.75-104.42-42.08-68.83-29-102.94-43.91S624.19 368 590.61 352.6l-.24-.11.3-.35.24.11q50.73 22.81 102.22 44.75t103.47 43.19q52 21.23 104.77 41.52c35.19 13.47 70.65 26.59 106.59 39 9 3.05 18 6.19 27.06 9.13l13.58 4.47c4.54 1.48 9.11 2.89 13.67 4.34q27.31 8.7 55.23 16.3c18 4.9 36.22 9.31 54.69 13v-9.11l-.41-.07c-2.45-.4-4.84-1-7.25-1.48l-7.21-1.55c-2.4-.54-4.83-1-7.19-1.6l-7.12-1.73-7.12-1.75-3.56-.87-3.51-.94-14.07-3.85q-27.94-7.89-55.29-16.74c-4.55-1.48-9.12-2.93-13.65-4.44l-13.57-4.57c-9.07-3-18-6.21-27-9.33-35.89-12.59-71.27-25.9-106.36-39.57s-69.87-27.75-104.42-42.09-68.83-29-102.94-43.91-68-30-101.64-45.41l-.24-.11.3-.34.24.11q50.73 22.8 102.22 44.71t103.47 43.19q52 21.24 104.76 41.52c35.19 13.48 70.66 26.59 106.6 39 9 3.05 18 6.19 27 9.13l13.59 4.47c4.54 1.47 9.11 2.89 13.66 4.34 18.21 5.8 36.66 11.19 55.23 16.3 18.24 5 36.71 9.43 55.43 13.15v-9.12l-1.14-.21c-2.45-.4-4.84-1-7.25-1.47l-7.16-1.61c-2.4-.53-4.83-1-7.2-1.59l-7.11-1.74-7.09-1.67-3.56-.87-3.52-1-14.06-3.78q-27.95-7.89-55.29-16.73c-4.55-1.49-9.12-2.94-13.65-4.44l-13.57-4.58c-9.07-3-18-6.21-27-9.32-35.9-12.6-71.27-25.91-106.36-39.58s-69.9-27.7-104.46-42.07-68.83-29-102.93-43.91-68-30-101.65-45.41l-.24-.11.31-.35.24.11q50.74 22.82 102.22 44.71t103.52 43.19q52 21.22 104.76 41.52c35.19 13.48 70.65 26.59 106.6 39 9 3 18 6.19 27.05 9.13l13.59 4.49c4.53 1.47 9.11 2.88 13.66 4.33q27.32 8.7 55.23 16.3c18.47 5 37.19 9.55 56.16 13.3v-9.14l-1.87-.33c-2.46-.4-4.84-1-7.25-1.48l-7.22-1.55c-2.39-.54-4.82-1-7.19-1.59l-7.12-1.74-7.11-1.74-3.56-.88-3.52-.94-14.07-3.78q-27.95-7.89-55.28-16.74c-4.55-1.48-9.12-2.93-13.66-4.44l-13.61-4.58c-9.07-3-18-6.21-27-9.33-35.89-12.59-71.26-25.9-106.35-39.57s-69.88-27.78-104.44-42.1-68.8-29-102.93-43.93-68-30-101.65-45.41l-.24-.11.31-.34.24.11q50.72 22.8 102.22 44.71t103.47 43.18q52 21.24 104.76 41.52c35.19 13.48 70.65 26.59 106.59 39 9 3.05 18 6.19 27.06 9.13l13.58 4.47c4.54 1.47 9.12 2.89 13.67 4.34 18.21 5.8 36.65 11.19 55.23 16.3s37.44 9.61 56.55 13.38l.34.06v-9.15l-2.61-.47c-2.45-.4-4.83-1-7.24-1.47l-7.22-1.56c-2.39-.53-4.83-1-7.19-1.59l-7.12-1.74-7.12-1.74-3.5-.89-3.52-.95-14.07-3.78q-27.95-7.89-55.28-16.73c-4.55-1.49-9.12-2.94-13.66-4.44l-13.56-4.58c-9.08-3-18-6.21-27-9.32-35.89-12.6-71.27-25.91-106.36-39.58s-69.86-27.74-104.42-42.08-68.83-29-102.94-43.91-68-30-101.64-45.41l-.24-.11.3-.35.24.11q50.67 22.82 102.15 44.71t103.47 43.19q52 21.23 104.77 41.52c35.19 13.48 70.65 26.59 106.59 39 9 3.05 18 6.19 27.06 9.13l13.58 4.48c4.54 1.47 9.11 2.88 13.67 4.33q27.32 8.7 55.23 16.3c18.6 5.06 37.44 9.62 56.55 13.38l1.07.2v-9.16l-3.34-.59c-2.45-.4-4.84-1-7.25-1.48l-7.21-1.55c-2.4-.54-4.83-1-7.19-1.59l-7.12-1.74-7.11-1.8-3.56-.88-3.51-.94-14.07-3.78q-27.95-7.89-55.29-16.74c-4.55-1.48-9.12-2.93-13.65-4.44l-13.57-4.57c-9.07-3-18-6.21-27-9.33-35.89-12.59-71.27-25.9-106.36-39.57S826.08 388 791.53 373.69s-68.83-29-102.94-43.91-68-30-101.64-45.41l-.24-.11.3-.34.24.11q50.73 22.8 102.22 44.71t103.47 43.18q52 21.24 104.76 41.52c35.19 13.48 70.66 26.59 106.6 39 9 3.05 18 6.19 27.05 9.13l13.59 4.43c4.54 1.47 9.11 2.89 13.66 4.34 18.21 5.8 36.66 11.19 55.23 16.3s37.45 9.61 56.56 13.38l1.8.32v-9.15l-4.07-.73c-2.45-.4-4.84-1-7.25-1.47l-7.21-1.56c-2.4-.53-4.83-1-7.2-1.59l-7.11-1.74-7.16-1.72-3.56-.87-3.52-.95-14.06-3.78q-27.95-7.89-55.29-16.73c-4.55-1.49-9.12-2.94-13.65-4.44l-13.53-4.61c-9.07-3-18-6.22-27-9.33-35.89-12.56-71.27-25.87-106.39-39.54s-69.87-27.74-104.43-42.08-68.82-29-102.93-43.91-68-30-101.65-45.41l-.23-.11.3-.35.24.11q50.7 22.81 102.25 44.71t103.45 43.19q52 21.23 104.76 41.52c35.19 13.48 70.66 26.59 106.6 39 9 3.05 18 6.19 27.05 9.13l13.59 4.45c4.54 1.47 9.11 2.88 13.66 4.33 18.21 5.8 36.66 11.2 55.23 16.3s37.45 9.62 56.56 13.38l2.53.46v-9.15l-4.8-.86c-2.46-.4-4.84-1-7.25-1.48l-7.21-1.55c-2.4-.54-4.83-1-7.2-1.59l-7.12-1.74-7.11-1.74-3.56-.88-3.52-.94-14.07-3.78q-27.93-7.89-55.28-16.74c-4.55-1.48-9.12-2.93-13.66-4.44l-13.56-4.57c-9.07-3-18-6.21-27-9.33-35.9-12.59-71.27-25.9-106.36-39.57s-69.87-27.75-104.43-42.09-68.83-29-102.93-43.91-68-30-101.65-45.41l-.24-.11.31-.34.24.11q50.72 22.8 102.22 44.71t103.47 43.18q52 21.24 104.76 41.52c35.19 13.48 70.65 26.59 106.59 39 9 3.05 18 6.19 27.06 9.13l13.58 4.47c4.54 1.47 9.12 2.89 13.67 4.34 18.21 5.8 36.65 11.19 55.23 16.3s37.45 9.61 56.56 13.38l3.26.59v-9.16l-5.54-1c-2.45-.4-4.83-1-7.24-1.47l-7.2-1.57c-2.39-.53-4.82-1-7.19-1.59l-7.12-1.74-7.12-1.74-3.55-.87-3.52-1-14.07-3.78q-27.95-7.89-55.28-16.73c-4.55-1.49-9.12-2.94-13.66-4.44l-13.56-4.57c-9.08-3-18-6.22-27-9.33-35.89-12.6-71.27-25.91-106.36-39.58s-69.87-27.69-104.43-42.03-68.83-29-102.94-43.91-68-30-101.64-45.41l-.24-.11.31-.34.24.1q50.72 22.82 102.21 44.71T790.74 331q52 21.22 104.77 41.52c35.19 13.48 70.65 26.59 106.59 39 9 3 18 6.19 27.06 9.13l13.58 4.48c4.54 1.47 9.11 2.88 13.67 4.33q27.31 8.7 55.23 16.3c18.6 5.06 37.44 9.62 56.55 13.38l4 .73v-9.16l-6.27-1.12c-2.45-.4-4.84-1-7.25-1.48l-7.21-1.55c-2.4-.54-4.83-1-7.19-1.59l-7.08-1.78-7.12-1.74-3.56-.88-3.51-.94-14.07-3.78q-27.94-7.89-55.28-16.74c-4.56-1.48-9.13-2.93-13.66-4.44l-13.57-4.57c-9.07-3-18-6.21-27-9.33-35.89-12.59-71.27-25.9-106.36-39.57s-69.87-27.75-104.46-42.09-68.83-29-102.94-43.91-68-30-101.64-45.41l-.24-.11.3-.34.24.11q50.73 22.8 102.22 44.71t103.47 43.18q52 21.24 104.76 41.52c35.19 13.48 70.66 26.59 106.6 39 9 3.05 18 6.19 27.05 9.13l13.59 4.47c4.54 1.47 9.11 2.89 13.67 4.34 18.2 5.8 36.65 11.19 55.22 16.3s37.45 9.61 56.56 13.38l4.73.86v-9.16l-7-1.26c-2.45-.4-4.84-1-7.25-1.47l-7.21-1.56c-2.4-.53-4.83-1-7.2-1.59l-7.11-1.74-7.12-1.74-3.56-.87-3.55-.95-14-3.8q-27.94-7.87-55.29-16.73c-4.55-1.49-9.12-2.94-13.65-4.44l-13.57-4.57c-9.07-3-18-6.22-27-9.33-35.89-12.6-71.27-25.91-106.36-39.58s-69.87-27.74-104.43-42.08-68.82-29-102.93-43.91-68-30-101.65-45.41l-.23-.11.3-.34.24.1q50.71 22.81 102.22 44.71t103.44 43.19q52 21.23 104.76 41.52c35.19 13.48 70.66 26.59 106.6 39 9 3.05 18 6.19 27.05 9.13l13.59 4.48c4.54 1.47 9.11 2.88 13.66 4.33 18.21 5.8 36.66 11.2 55.23 16.3s37.45 9.62 56.56 13.38l5.46 1v-9.17l-7.73-1.38c-2.46-.4-4.84-1-7.25-1.48l-7.21-1.55c-2.4-.54-4.83-1-7.2-1.59l-7.12-1.74-7.11-1.74-3.56-.88-3.52-.94-14.07-3.78q-27.93-7.92-55.23-16.77c-4.55-1.48-9.12-2.93-13.66-4.44l-13.56-4.57c-9.07-3-18-6.21-27-9.33-35.9-12.59-71.27-25.9-106.36-39.57s-69.87-27.75-104.43-42.09-68.83-29-102.93-43.91-68-30-101.65-45.41l-.24-.11.31-.34.24.11q50.72 22.8 102.22 44.71t103.47 43.18q52 21.24 104.76 41.52c35.19 13.48 70.65 26.59 106.59 39 9 3.05 18 6.19 27.06 9.13l13.58 4.47c4.54 1.47 9.12 2.89 13.67 4.34 18.21 5.8 36.65 11.19 55.23 16.3s37.45 9.61 56.56 13.38l6.19 1.12v-9.16l-8.46-1.52c-2.46-.4-4.84-1-7.25-1.47l-7.22-1.56c-2.39-.53-4.82-1-7.19-1.59l-7.12-1.74-7.12-1.74-3.55-.87-3.52-.95-14.07-3.78q-27.94-7.87-55.28-16.73c-4.55-1.48-9.12-2.94-13.66-4.44l-13.61-4.59c-9.08-3-18-6.22-27-9.33-35.89-12.6-71.27-25.91-106.36-39.58s-69.86-27.74-104.42-42.08-68.83-29-102.94-43.91-68-30-101.64-45.41l-.24-.11.31-.34.24.1q50.72 22.82 102.21 44.71t103.48 43.19q52 21.22 104.76 41.52c35.19 13.48 70.65 26.59 106.59 39 9 3.05 18 6.19 27.06 9.13l13.58 4.48c4.54 1.47 9.11 2.88 13.67 4.33q27.32 8.7 55.23 16.31c18.6 5.05 37.44 9.61 56.55 13.37l6.93 1.26v-9.17l-9.21-1.64c-2.45-.4-4.84-1-7.24-1.48l-7.22-1.55c-2.39-.54-4.83-1-7.19-1.59l-7.15-1.77-7.12-1.74-3.56-.88-3.51-.94-14.07-3.78q-27.94-7.89-55.28-16.74c-4.56-1.48-9.13-2.93-13.66-4.44l-13.57-4.57c-9.07-3-18-6.21-27-9.33-35.86-12.59-71.23-25.9-106.33-39.57s-69.9-27.75-104.42-42.09-68.83-29-102.94-43.91-68-30-101.64-45.41l-.24-.11.3-.34.24.11q50.73 22.8 102.22 44.71t103.47 43.18q52 21.24 104.77 41.53c35.19 13.47 70.65 26.58 106.59 39 9 3.05 18 6.19 27.05 9.13l13.59 4.47c4.54 1.47 9.11 2.89 13.67 4.34 18.2 5.8 36.65 11.19 55.22 16.3s37.45 9.61 56.56 13.38l7.66 1.39v-10.21l-10-1.78c-2.46-.4-4.84-1-7.25-1.48l-7.22-1.55c-2.39-.54-4.82-1-7.19-1.6l-7.12-1.74-7.12-1.74-3.55-.87-3.52-.94-14.03-3.78q-28-7.89-55.3-16.74c-4.55-1.48-9.12-2.93-13.66-4.44l-13.56-4.57c-9.07-3-18-6.21-27-9.33-35.89-12.59-71.26-25.9-106.36-39.57s-69.86-27.75-104.42-42.09-68.83-29-102.93-43.91-68-30-101.65-45.41l-.24-.11.31-.34.24.11q50.72 22.8 102.22 44.7T786.3 248.1q52 21.24 104.76 41.52c35.19 13.48 70.65 26.59 106.59 39 9 3 18 6.19 27.06 9.13l13.58 4.47c4.54 1.47 9.11 2.89 13.67 4.34 18.21 5.8 36.65 11.19 55.23 16.3s37.44 9.61 56.55 13.38l8.45 1.53v-9.17l-10.72-1.92c-2.45-.4-4.83-1-7.24-1.47l-7.22-1.56c-2.39-.53-4.83-1-7.19-1.59l-7.12-1.74-7.12-1.74-3.55-.87-3.52-.95-14.07-3.76q-27.94-7.89-55.28-16.74c-4.55-1.48-9.13-2.93-13.66-4.43l-13.57-4.58c-9.07-3-18-6.21-27-9.32-35.89-12.6-71.27-25.91-106.36-39.58s-69.86-27.79-104.38-42.12-68.83-29-102.94-43.91-68-30-101.64-45.41l-.24-.11.3-.35.24.11q50.73 22.82 102.22 44.71t103.47 43.19q52 21.22 104.77 41.52c35.19 13.47 70.65 26.59 106.59 39 9 3.05 18 6.19 27.06 9.13l13.58 4.47c4.54 1.48 9.11 2.89 13.67 4.34q27.32 8.7 55.23 16.3c18.6 5.06 37.44 9.62 56.55 13.38l9.18 1.67v-9.18l-11.45-2c-2.45-.4-4.84-1-7.25-1.48l-7.25-1.61c-2.4-.54-4.83-1-7.19-1.6l-7.12-1.73-7.12-1.75-3.56-.92-3.51-.94-14.07-3.78q-27.94-7.89-55.29-16.74c-4.55-1.48-9.12-2.93-13.65-4.44l-13.58-4.53c-9.07-3-18-6.21-27-9.33-35.89-12.59-71.27-25.9-106.36-39.57s-69.87-27.75-104.42-42.09-68.83-29-102.94-43.91-68-30-101.64-45.41l-.24-.11.3-.34.24.11q50.73 22.8 102.22 44.71t103.47 43.18q52 21.24 104.76 41.52c35.19 13.48 70.66 26.59 106.6 39 9 3.05 18 6.19 27.05 9.13l13.59 4.47c4.54 1.47 9.11 2.89 13.66 4.34 18.21 5.8 36.66 11.19 55.23 16.3s37.45 9.61 56.56 13.38l9.91 1.8v-9.18l-12.18-2.18c-2.45-.4-4.84-1-7.25-1.47l-7.21-1.56c-2.4-.53-4.83-1-7.2-1.59l-7.1-1.77-7.12-1.74-3.56-.87-3.52-.95-14.06-3.78q-27.94-7.89-55.29-16.73c-4.55-1.49-9.12-2.94-13.65-4.44l-13.57-4.58c-9.07-3-18-6.21-27-9.32-35.9-12.59-71.28-25.9-106.36-39.59s-69.87-27.75-104.43-42.08-68.83-29-102.93-43.91-68-30-101.65-45.41l-.24-.11.31-.35.24.11q50.72 22.83 102.22 44.75t103.47 43.19q52 21.22 104.76 41.52c35.19 13.48 70.65 26.59 106.6 39 9 3 18 6.19 27.05 9.13l13.59 4.48c4.53 1.47 9.11 2.88 13.66 4.33q27.31 8.7 55.23 16.3c18.6 5.06 37.45 9.62 56.56 13.38l10.64 1.89V328l-12.91-2.31c-2.46-.4-4.84-1-7.25-1.48l-7.22-1.55c-2.39-.54-4.82-1-7.19-1.59l-7.12-1.74-7.11-1.74-3.56-.88-3.52-.94-14.07-3.77q-27.94-7.89-55.28-16.74c-4.55-1.48-9.12-2.93-13.66-4.44l-13.56-4.57c-9.07-3-18-6.21-27-9.33-35.89-12.59-71.26-25.9-106.35-39.57s-69.87-27.75-104.43-42.09-68.83-29-102.93-43.91-68-30-101.65-45.41l-.24-.11.31-.34.24.11q50.71 22.8 102.22 44.71t103.47 43.18q52 21.24 104.76 41.52c35.19 13.48 70.65 26.59 106.59 39 9 3.05 18 6.19 27.06 9.13l13.58 4.47c4.54 1.47 9.12 2.89 13.67 4.34 18.21 5.8 36.65 11.19 55.23 16.3s37.44 9.61 56.55 13.38l11.37 2.07v-9.18l-13.65-2.44c-2.45-.4-4.83-1-7.24-1.47l-7.22-1.56c-2.39-.53-4.83-1-7.19-1.59l-7.12-1.74-7.12-1.72-3.55-.87-3.52-.95-14.07-3.78q-27.95-7.89-55.28-16.73c-4.55-1.49-9.12-2.94-13.66-4.44l-13.56-4.58c-9.08-3-18-6.21-27-9.32-35.89-12.6-71.27-25.91-106.36-39.58s-69.87-27.75-104.46-42.1-68.83-29-102.94-43.91-68-30-101.64-45.41l-.24-.11.3-.35.25.11q50.75 22.81 102.27 44.71t103.47 43.19q52 21.23 104.77 41.52c35.19 13.48 70.65 26.59 106.59 39 9 3.05 18 6.19 27.06 9.13l13.55 4.47c4.54 1.47 9.11 2.88 13.67 4.33q27.32 8.7 55.23 16.3c18.6 5.06 37.44 9.62 56.55 13.38l12.11 2.2v-8.32l-14.33-2.56c-2.45-.4-4.84-1-7.25-1.47l-7.21-1.56c-2.4-.53-4.83-1-7.2-1.59l-7.11-1.71-7.12-1.74-3.56-.87-3.52-.95-14.07-3.78q-27.93-7.89-55.28-16.73c-4.55-1.49-9.12-2.94-13.65-4.44l-13.57-4.58c-9.07-3-18-6.21-27-9.32-35.9-12.6-71.27-25.91-106.36-39.58s-69.87-27.74-104.43-42.08-68.83-29-102.93-43.91-68-30-101.65-45.41l-.24-.11.31-.35.24.11q50.72 22.74 102.22 44.66t103.47 43.19q52 21.22 104.76 41.52c35.19 13.48 70.65 26.59 106.6 39 9 3.05 18 6.19 27.05 9.13l13.59 4.48c4.53 1.47 9.11 2.88 13.66 4.33q27.32 8.7 55.23 16.3c18.6 5.06 37.45 9.62 56.56 13.38l12.79 2.3v-9.2l-.43-.07-14.63-2.61c-2.46-.4-4.84-1-7.25-1.48l-7.22-1.55c-2.39-.54-4.82-1-7.19-1.59l-7.12-1.74-7.11-1.74-3.56-.88-3.52-.94-14.07-3.75q-27.95-7.89-55.28-16.74c-4.55-1.48-9.12-2.93-13.66-4.44l-13.56-4.57c-9.07-3-18-6.21-27-9.33-35.9-12.62-71.27-25.92-106.4-39.6s-69.86-27.75-104.42-42.09-68.83-29-102.93-43.91-68-30-101.65-45.41l-.24-.11.31-.34.24.11q50.72 22.8 102.22 44.71t103.47 43.18q52 21.24 104.79 41.54c35.19 13.48 70.65 26.59 106.59 39 9 3 18 6.19 27.06 9.13l13.56 4.43c4.54 1.47 9.12 2.89 13.67 4.34 18.21 5.8 36.65 11.19 55.23 16.3s37.44 9.61 56.55 13.38l13.55 2.42v-9.22l-1.16-.17-14.64-2.61c-2.45-.4-4.83-1-7.24-1.47l-7.22-1.53c-2.39-.53-4.83-1-7.19-1.59l-7.12-1.74-7.12-1.74-3.55-.87-3.52-.95-14.07-3.78q-27.95-7.89-55.28-16.73c-4.55-1.49-9.13-2.94-13.66-4.44l-13.57-4.57c-9.07-3-18-6.22-27-9.33-35.89-12.6-71.27-25.91-106.36-39.58s-69.86-27.74-104.42-42.08-68.83-29-102.94-43.91-68-30-101.64-45.41l-.24-.11.3-.35.24.11q50.73 22.8 102.22 44.7t103.47 43.19q52 21.23 104.77 41.52c35.19 13.48 70.65 26.59 106.59 39 9 3.05 18 6.19 27.06 9.13l13.58 4.48c4.54 1.47 9.11 2.88 13.67 4.33q27.31 8.7 55.23 16.3c18.6 5.06 37.44 9.62 56.55 13.38l14.26 2.56v-10.26l-2-.28-14.63-2.62c-2.46-.4-4.84-1-7.25-1.47l-7.12-1.56c-2.4-.53-4.83-1-7.2-1.59l-7.16-1.74-7.11-1.74-3.56-.87-3.52-.95-14.07-3.78q-27.93-7.89-55.28-16.74c-4.55-1.48-9.12-2.93-13.66-4.43l-13.56-4.58c-9.07-3-18-6.21-27-9.32C953.19 196 917.8 182.68 882.71 169s-69.87-27.75-104.43-42.09S709.45 97.9 675.35 83s-68-30-101.65-45.41l-.24-.11.31-.35.24.11Q624.73 60.08 676.19 82t103.47 43.19q52 21.22 104.76 41.52c35.19 13.47 70.65 26.59 106.59 39 9 3 18 6.19 27.06 9.13l13.58 4.47c4.54 1.48 9.12 2.89 13.67 4.34q27.32 8.7 55.23 16.3c18.64 5.05 37.49 9.56 56.64 13.32l14.4 2.62.64.09v-9.26l-2.68-.39-14.64-2.61c-2.45-.41-4.83-1-7.24-1.48l-7.22-1.55c-2.39-.54-4.82-1-7.19-1.6l-7.12-1.74-7.12-1.74-3.55-.87-3.52-.94-14.11-3.8q-27.95-7.89-55.28-16.74c-4.55-1.48-9.12-2.93-13.66-4.44l-13.56-4.57c-9.08-3-18-6.21-27-9.33-35.89-12.59-71.27-25.9-106.36-39.57s-69.86-27.75-104.42-42.09-68.83-29-102.94-43.91S606.59 39.4 572.97 24l-.24-.11.31-.34.24.11q50.72 22.8 102.21 44.7t103.47 43.19q52 21.24 104.77 41.52c35.19 13.48 70.65 26.59 106.59 39 9 3.05 18 6.19 27.06 9.13l13.58 4.47c4.54 1.47 9.11 2.89 13.67 4.33 18.21 5.81 36.65 11.2 55.23 16.31s37.44 9.61 56.55 13.38l14.41 2.61 1.37.21v-9.26l-3.41-.5-14.59-2.68c-2.45-.4-4.84-1-7.25-1.47l-7.26-1.6c-2.4-.53-4.83-1-7.19-1.59l-7.12-1.74-7.12-1.67-3.56-.87-3.51-.95-14.07-3.78q-27.95-7.89-55.28-16.74c-4.56-1.48-9.13-2.93-13.66-4.43l-13.57-4.58c-9.07-3-18-6.21-27-9.32-35.89-12.6-71.27-25.91-106.36-39.58S811.37 114 776.82 99.63s-68.83-29-102.94-43.9-68-30-101.64-45.41l-.24-.11.3-.35.24.11q50.73 22.81 102.22 44.71t103.43 43.19q52 21.22 104.76 41.52c35.19 13.47 70.66 26.59 106.6 39 9 3 18 6.19 27.05 9.13l13.59 4.48c4.54 1.48 9.11 2.89 13.67 4.34 18.2 5.8 36.65 11.2 55.22 16.3s37.45 9.62 56.56 13.38l14.41 2.62 2.1.31v-9.26l-4.15-.61-14.63-2.61c-2.45-.41-4.84-1-7.25-1.48l-7.21-1.55c-2.4-.54-4.83-1-7.2-1.6l-7.11-1.74-7.12-1.74-3.56-.87-3.52-.94-14.06-3.78q-27.91-7.93-55.25-16.77c-4.55-1.48-9.12-2.93-13.65-4.44l-13.57-4.56c-9.07-3-18-6.21-27-9.33-35.89-12.59-71.27-25.9-106.36-39.57S810.64 100.33 776.08 86s-68.82-29-102.89-43.92Q625.7 21.37 578.82 0H0v999.56M878.57 57c35.19 13.46 70.62 26.57 106.62 39 9 3 18 6.19 27 9.13l13.59 4.48c4.54 1.47 9.11 2.89 13.66 4.33 18.21 5.8 36.66 11.2 55.23 16.31s37.45 9.61 56.56 13.37l14.4 2.62 6.53 1v-10.36l-8.62-1.26-14.61-2.62c-2.45-.4-4.84-1-7.25-1.47l-7.21-1.53c-2.4-.53-4.83-1-7.19-1.59l-7.09-1.77-7.12-1.74-3.56-.87-3.51-1-14.07-3.78q-27.94-7.89-55.28-16.74c-4.56-1.48-9.13-2.93-13.66-4.43l-13.6-4.53c-9.07-3-18-6.21-27-9.32-35.89-12.6-71.27-25.91-106.36-39.58S806.19 16.9 771.61 2.57c-2-.85-4.08-1.71-6.12-2.57h-29.25q18.75 7.79 37.57 15.46Q825.83 36.69 878.57 57z" fill="none"/><path d="M776.77 70.58q52 21.23 104.76 41.52c35.19 13.47 70.65 26.59 106.59 39 9 3.05 18 6.19 27.06 9.13l13.58 4.47c4.54 1.48 9.12 2.89 13.67 4.34q27.32 8.7 55.23 16.3c18.6 5.06 37.45 9.62 56.56 13.38l14.4 2.62 3.57.53v-9.27l-5.61-.82-14.63-2.61c-2.46-.41-4.84-1-7.25-1.48l-7.22-1.55c-2.39-.54-4.82-1-7.19-1.6l-7.1-1.77-7.14-1.77-3.55-.87-3.52-.94-14.07-3.78q-27.94-7.89-55.28-16.74c-4.55-1.48-9.12-2.93-13.66-4.44l-13.56-4.57c-9.08-3-18-6.21-27-9.33-35.89-12.59-71.27-25.9-106.36-39.57S809.19 73 774.62 58.7s-68.83-29-102.94-43.91Q654.85 7.44 638.07 0h-28q31.49 13.85 63.2 27.39 51.47 21.96 103.5 43.19zM1033.61 4.6c18.2 5.8 36.65 11.19 55.23 16.3s37.44 9.61 56.55 13.38l14.41 2.61 12.39 1.84v-9.29l-14.44-2.1-14.63-2.62c-2.45-.4-4.84-1-7.25-1.47l-7.21-1.56c-2.4-.53-4.83-1-7.19-1.59l-7.12-1.74-7.16-1.74-3.56-.87-3.44-.95-14.1-3.8q-18.75-5.27-37.24-11h-29.66l.78.26c4.51 1.47 9.08 2.89 13.64 4.34zM877.78 42.32c35.19 13.47 70.66 26.59 106.6 39 9 3 18 6.19 27.05 9.13l13.59 4.47c4.54 1.48 9.11 2.89 13.67 4.34 18.2 5.8 36.65 11.2 55.22 16.3s37.45 9.62 56.56 13.38l14.41 2.62 7.31 1.08v-9.27l-9.36-1.37-14.64-2.64c-2.45-.4-4.84-1-7.25-1.48l-7.21-1.55c-2.4-.54-4.83-1-7.2-1.6l-7.1-1.73-7.12-1.74-3.56-.87-3.52-.94-14.04-3.79q-28-7.89-55.31-16.74c-4.55-1.48-9.12-2.93-13.65-4.44l-13.57-4.57c-9.07-3-18-6.21-27-9.33C945.77 58 910.39 44.68 875.3 31q-39-15.21-77.52-31h-26.69l1.93.8Q825.04 22 877.78 42.32zm130.72-6.48l13.59 4.48c4.54 1.47 9.11 2.88 13.67 4.33 18.2 5.8 36.65 11.2 55.22 16.3s37.45 9.62 56.56 13.38l14.41 2.67 10.24 1.47v-9.28l-12.29-1.8-14.63-2.61c-2.45-.4-4.84-1-7.25-1.48l-7.21-1.55c-2.4-.54-4.83-1-7.19-1.59l-7.12-1.74-7.12-1.74-3.56-.88-3.52-.94-14.06-3.78q-27.94-7.89-55.29-16.74c-4.55-1.48-9.12-2.93-13.65-4.44l-13.57-4.57c-9.07-3-18-6.21-27-9.33q-22.3-7.82-44.34-16h-27.11q36.81 13.76 74.17 26.71c9.01 3.05 17.97 6.19 27.05 9.13z" fill="none"/><path d="M1007.77 22.2l13.59 4.47c4.54 1.47 9.11 2.89 13.66 4.34 18.21 5.8 36.66 11.19 55.23 16.3s37.45 9.61 56.56 13.38l14.38 2.61 11 1.63v-8.36l-13-1.9-14.6-2.61c-2.46-.4-4.84-1-7.25-1.47l-7.21-1.59c-2.4-.54-4.83-1-7.2-1.59l-7.12-1.74-7.11-1.67-3.51-.92-3.52-.94-14.07-3.78q-27.93-7.89-55.28-16.74c-4.55-1.48-9.12-2.93-13.66-4.44l-13.56-4.57c-9.07-3-18-6.21-27-9.33C975 2.2 971.92 1.1 968.83 0H943.7q18.44 6.65 37 13.07c9.03 3.05 17.99 6.19 27.07 9.13zm136.89-1.57l14.4 2.62 13.13 1.95v-9.3l-.38-.05-14.79-2.16-14.63-2.61c-2.46-.4-4.84-1-7.25-1.48l-7.21-1.55c-2.4-.54-4.83-1-7.2-1.6l-7.12-1.73L1106.5 3l-3.56-.87-3.52-.94-4.29-1.19h-32.56q12.72 3.74 25.53 7.25c18.6 5.06 37.45 9.62 56.56 13.38z" fill="none"/><path d="M1007.09 9.48l13.58 4.52c4.54 1.47 9.12 2.89 13.67 4.34 18.21 5.8 36.65 11.19 55.23 16.3s37.45 9.57 56.56 13.36l14.4 2.61 11.66 1.71V43l-13.7-2-14.64-2.61c-2.45-.4-4.84-1-7.24-1.48l-7.22-1.55c-2.39-.54-4.83-1-7.19-1.6l-7.12-1.76-7.12-1.74-3.56-.87-3.51-.94-14.07-3.78q-27.95-7.89-55.28-16.74c-4.56-1.48-9.13-2.93-13.66-4.44L1007.53 0h-28.49l1 .35c9.01 3.05 17.97 6.19 27.05 9.13zm-24.9 30.88c9 3 18 6.19 27.06 9.13l13.57 4.51c4.54 1.47 9.11 2.89 13.67 4.34 18.21 5.8 36.65 11.19 55.23 16.3s37.47 9.57 56.55 13.36l14.41 2.61 9.51 1.39v-9.28L1160.64 81 1146 78.38c-2.45-.4-4.84-1-7.25-1.47l-7.21-1.56c-2.39-.53-4.83-1-7.19-1.59l-7.16-1.7-7.12-1.74-3.56-.87-3.51-1-14.07-3.78q-27.9-7.84-55.24-16.67c-4.56-1.49-9.13-2.94-13.66-4.44L1006.46 39c-9.07-3-18-6.21-27-9.32Q938.75 15.36 898.83 0h-26.81c1.19.46 2.38.93 3.57 1.38 35.19 13.48 70.65 26.62 106.6 38.98zM1158.33 9.6l13.86 2.06V3.28l-1.07-.15L1156.34 1l-5.42-1h-38.68q15.74 3.81 31.69 7z" fill="none"/><path d="M982.91 54c9 3 18 6.19 27.06 9.13l13.58 4.48c4.54 1.47 9.12 2.88 13.67 4.33q27.32 8.7 55.23 16.3c18.6 5.06 37.45 9.62 56.56 13.38l14.4 2.62 8.78 1.3v-9.28l-10.82-1.58-14.63-2.61c-2.46-.4-4.84-1-7.25-1.48l-7.22-1.59c-2.39-.54-4.82-1-7.19-1.59l-7.12-1.74-7.12-1.67-3.55-.88-3.52-.94-14.07-3.78q-27.94-7.89-55.28-16.74c-4.55-1.48-9.12-2.93-13.66-4.44l-13.57-4.6c-9.08-3-18-6.21-27-9.33-35.89-12.59-71.27-25.9-106.36-39.57-3.15-1.23-6.29-2.48-9.43-3.72h-26.71q19.26 7.59 38.63 15c35.19 13.51 70.65 26.62 106.59 39z" fill="none"/><path d="M983.65 67.65c9 3 18 6.19 27.05 9.13l13.59 4.47c4.54 1.47 9.11 2.89 13.66 4.34 18.21 5.8 36.66 11.19 55.23 16.3s37.45 9.61 56.56 13.38l14.4 2.61 8 1.2v-9.28l-10.09-1.47-14.63-2.62c-2.46-.4-4.84-1-7.25-1.47l-7.21-1.56c-2.4-.53-4.83-1-7.2-1.59l-7.12-1.74-7.11-1.74-3.56-.87-3.52-.95-14.02-3.79q-27.93-7.88-55.24-16.72c-4.55-1.49-9.12-2.94-13.66-4.44l-13.56-4.58c-9.07-3-18-6.21-27-9.32-35.94-12.6-71.31-25.94-106.4-39.58Q852.57 8.8 830.75 0h-26.68q36.31 14.58 73 28.67c35.17 13.48 70.64 26.59 106.58 38.98z" fill="none"/><path d="M625 253.27c-19.11-3.76-38-8.32-56.56-13.38s-37-10.5-55.23-16.3c-4.55-1.45-9.13-2.86-13.67-4.34l-13.58-4.47c-9.08-2.94-18-6.08-27.06-9.13-35.94-12.38-71.4-25.5-106.59-39s-70.08-27.37-104.76-41.52S178.33 96.61 144 82 75.63 52.47 41.82 37.26l-.24-.11-.31.35.24.11Q91.94 60.76 143.16 83t102.93 43.9q51.84 21.53 104.43 42.1c35.09 13.67 70.46 27 106.36 39.58 9 3.11 17.93 6.32 27 9.32l13.56 4.58c4.54 1.5 9.11 2.95 13.66 4.43q27.3 8.91 55.28 16.74l14.07 3.78 3.52.95 3.56.87 7.11 1.74 7.12 1.74c2.37.59 4.8 1.06 7.2 1.59l7.21 1.56c2.41.5 4.79 1.07 7.25 1.47l14.63 2.65 2 .28V256l-.64-.09z" transform="translate(532.19)" fill="url(#a)"/><path d="M569.92 268.2c-18.58-5.11-37-10.5-55.23-16.3-4.55-1.45-9.13-2.87-13.67-4.34l-13.58-4.47c-9.09-2.94-18-6.08-27.06-9.13-35.94-12.39-71.4-25.5-106.59-39s-70.08-27.34-104.79-41.5-69.18-28.54-103.47-43.18S77.15 80.77 43.34 65.57l-.24-.11-.31.34.24.11q50.43 23.16 101.65 45.41t102.93 43.91q51.84 21.51 104.39 42.09c35.1 13.67 70.47 27 106.36 39.57 9 3.12 17.94 6.32 27 9.33l13.64 4.57c4.54 1.51 9.11 3 13.66 4.44q27.3 8.91 55.28 16.74l14.06 3.78 3.52.94 3.56.88 7.11 1.74 7.12 1.74c2.37.59 4.8 1.05 7.19 1.59l7.22 1.55c2.41.51 4.79 1.08 7.25 1.48l14.63 2.61.43.07V284l-13.53-2.45c-19.14-3.74-37.98-8.29-56.58-13.35z" transform="translate(532.19)" fill="url(#c)"/><path d="M571.34 294.61q-27.87-7.65-55.23-16.3c-4.56-1.45-9.13-2.86-13.67-4.33l-13.58-4.48c-9.09-2.94-18-6.08-27.06-9.13-35.94-12.38-71.4-25.49-106.59-39S285.12 194 250.44 179.88 181.27 151.33 147 136.69 78.57 107.19 44.76 92l-.25-.11-.3.35.24.11q50.43 23.15 101.64 45.41T249 181.65q51.84 21.51 104.42 42.08c35.09 13.67 70.47 27 106.36 39.58 9 3.11 17.93 6.32 27 9.32l13.56 4.58c4.54 1.5 9.11 3 13.66 4.44q27.29 8.89 55.28 16.73l14.07 3.78 3.52.95 3.55.87 7.12 1.74 7.12 1.74c2.36.59 4.8 1.06 7.19 1.59l7.22 1.56c2.41.51 4.79 1.07 7.24 1.47l13.69 2.44v-4.33L627.89 308c-19.11-3.77-37.95-8.33-56.55-13.39z" transform="translate(532.19)" fill="url(#d)"/><path d="M572.8 321.9q-27.87-7.65-55.23-16.3c-4.55-1.45-9.13-2.86-13.66-4.33l-13.59-4.48c-9.08-2.94-18-6.08-27.05-9.13-35.95-12.38-71.41-25.49-106.6-39s-70.08-27.37-104.76-41.52-69.18-28.52-103.47-43.14S80 134.48 46.22 119.27l-.24-.11-.31.35.24.11Q96.34 142.77 147.56 165t102.93 43.91q51.84 21.5 104.43 42.08c35.09 13.67 70.46 27 106.36 39.58 9 3.11 17.93 6.32 27 9.32l13.57 4.58c4.53 1.5 9.1 2.95 13.65 4.44q27.3 8.9 55.29 16.73l14.06 3.78 3.52.95 3.56.87 7.12 1.74 7.11 1.74c2.37.59 4.8 1.06 7.2 1.59l7.21 1.56c2.41.51 4.8 1.07 7.25 1.47l12.18 2.21v-4.33l-10.64-1.94c-19.11-3.76-37.96-8.28-56.56-13.38z" transform="translate(532.19)" fill="url(#e)"/><path d="M569.19 254.55q-27.87-7.65-55.23-16.3c-4.56-1.45-9.13-2.86-13.67-4.33l-13.58-4.48c-9.09-2.94-18-6.08-27.06-9.13-35.94-12.38-71.4-25.49-106.59-39S283 154 248.29 139.82s-69.17-28.55-103.47-43.19-68.4-29.5-102.22-44.71l-.24-.11-.3.35.24.11q50.43 23.15 101.64 45.41t102.94 43.91q51.84 21.51 104.42 42.08c35.09 13.67 70.47 27 106.36 39.58 9 3.11 17.93 6.32 27 9.33l13.57 4.57c4.53 1.5 9.11 2.95 13.66 4.44q27.29 8.9 55.28 16.73l14.07 3.78 3.52.95 3.55.87 7.12 1.74 7.12 1.74c2.36.59 4.8 1.06 7.19 1.59l7.22 1.56c2.41.51 4.79 1.07 7.24 1.47l14.64 2.62 1.16.17v-4.29l-14.26-2.59c-19.11-3.76-37.95-8.32-56.55-13.38z" transform="translate(532.19)" fill="url(#f)"/><path d="M570.65 281.84q-27.87-7.65-55.23-16.3c-4.55-1.45-9.13-2.86-13.66-4.33l-13.59-4.48c-9.08-2.94-18-6.08-27.05-9.13-35.95-12.38-71.41-25.49-106.6-39s-70.08-27.37-104.76-41.52-69.18-28.55-103.47-43.19S77.88 94.42 44.07 79.21l-.24-.11-.31.35.24.11Q94.19 102.7 145.41 125t102.93 43.91q51.84 21.48 104.43 42.09c35.09 13.67 70.46 27 106.36 39.58 9 3.11 17.93 6.32 27 9.32l13.57 4.58c4.53 1.5 9.1 2.95 13.65 4.44q27.3 8.89 55.28 16.73l14.07 3.78 3.52.95 3.56.87 7.12 1.75 7.11 1.74c2.37.59 4.8 1.06 7.2 1.59l7.21 1.56c2.41.51 4.8 1.07 7.25 1.47l14.33 2.51v-4.32l-12.79-2.33c-19.11-3.76-37.96-8.32-56.56-13.38z" transform="translate(532.19)" fill="url(#g)"/><path d="M572.07 308.26c-18.58-5.11-37-10.5-55.23-16.3-4.55-1.45-9.13-2.87-13.67-4.34l-13.58-4.47c-9.08-2.94-18-6.08-27.06-9.13-35.94-12.39-71.4-25.5-106.59-39s-70.08-27.36-104.76-41.52S182 165 147.71 150.34 79.3 120.83 45.49 105.63l-.24-.11-.31.34.24.11q50.43 23.16 101.65 45.41t102.93 43.91q51.84 21.51 104.43 42.09c35.09 13.67 70.46 27 106.35 39.57 9 3.12 17.94 6.32 27 9.33l13.56 4.57c4.54 1.51 9.11 3 13.66 4.44q27.3 8.91 55.28 16.74l14.07 3.78 3.52.94 3.56.88 7.11 1.74 7.12 1.74c2.37.59 4.8 1.05 7.19 1.59l7.22 1.55c2.41.51 4.79 1.08 7.25 1.48L640 328v-4.3l-11.38-2.06c-19.11-3.77-37.95-8.32-56.55-13.38z" transform="translate(532.19)" fill="url(#h)"/><path d="M579.45 445.72q-27.87-7.65-55.23-16.3c-4.56-1.45-9.13-2.86-13.67-4.33L497 420.61c-9.09-2.94-18-6.08-27.06-9.13-35.94-12.38-71.4-25.49-106.59-39s-70.11-27.34-104.8-41.48-69.17-28.55-103.47-43.19-68.4-29.5-102.21-44.71l-.24-.1-.31.34.24.11Q103 266.6 154.2 288.85t102.94 43.91q51.86 21.51 104.42 42.08c35.09 13.67 70.47 27 106.36 39.58 9 3.11 17.93 6.32 27 9.33l13.56 4.57c4.54 1.5 9.11 2.95 13.66 4.44q27.29 8.89 55.28 16.73l14.07 3.78 3.52 1 3.55.87 7.12 1.74 7.12 1.74c2.37.59 4.8 1.06 7.19 1.59l7.22 1.56c2.41.51 4.79 1.07 7.24 1.47l5.54 1v-4.35l-4-.73c-19.1-3.82-37.94-8.38-56.54-13.44z" transform="translate(532.19)" fill="url(#i)"/><path d="M580.91 473c-18.57-5.1-37-10.5-55.23-16.3-4.55-1.45-9.12-2.86-13.66-4.33l-13.59-4.48c-9.08-2.94-18-6.08-27.05-9.13-35.94-12.38-71.41-25.49-106.6-39S294.7 372.43 260 358.28s-69.18-28.55-103.47-43.19-68.41-29.5-102.22-44.71l-.24-.11-.3.35.23.11q50.43 23.14 101.65 45.41t102.95 43.91q51.84 21.51 104.4 42.08c35.09 13.67 70.47 27 106.36 39.58 9 3.11 17.93 6.32 27 9.33l13.64 4.57c4.53 1.5 9.1 2.95 13.65 4.44q27.3 8.9 55.29 16.73l14.06 3.78 3.52.95 3.56.87 7.12 1.74 7.11 1.74c2.37.59 4.8 1.06 7.2 1.59l7.21 1.56c2.41.51 4.8 1.07 7.25 1.47l4.07.73v-4.36l-2.53-.46c-19.15-3.76-38-8.32-56.6-13.39z" transform="translate(532.19)" fill="url(#j)"/><path d="M624.22 239.63c-19.11-3.77-38-8.32-56.55-13.38s-37-10.5-55.23-16.31c-4.56-1.44-9.13-2.86-13.67-4.33l-13.58-4.47c-9.09-2.94-18-6.08-27.06-9.13-35.94-12.39-71.4-25.5-106.59-39s-70.08-27.36-104.77-41.52S177.6 83 143.3 68.32s-68.4-29.5-102.21-44.7l-.24-.11-.31.34.24.11q50.43 23.16 101.64 45.41t102.94 43.91q51.84 21.51 104.42 42.09c35.09 13.67 70.47 27 106.36 39.57 9 3.12 17.93 6.32 27 9.33l13.56 4.57c4.54 1.51 9.11 3 13.66 4.44q27.28 8.91 55.28 16.74l14.07 3.78 3.52.94 3.55.87 7.12 1.74 7.12 1.74c2.37.6 4.8 1.06 7.19 1.6l7.22 1.55c2.41.51 4.79 1.07 7.24 1.48l14.64 2.61 2.68.39v-4.27l-1.37-.21z" transform="translate(532.19)" fill="url(#k)"/><path d="M573.53 335.55c-18.57-5.11-37-10.5-55.23-16.3-4.55-1.45-9.12-2.87-13.66-4.34l-13.59-4.47c-9.08-2.94-18-6.08-27.05-9.13-35.94-12.39-71.41-25.5-106.6-39s-70.08-27.31-104.76-41.5-69.18-28.54-103.47-43.18S80.77 148.12 47 132.92l-.24-.11-.3.34.24.11q50.43 23.16 101.64 45.41t102.94 43.91q51.82 21.51 104.42 42.09c35.09 13.67 70.47 27 106.36 39.57 9 3.12 17.93 6.32 27 9.33l13.57 4.57c4.53 1.51 9.1 3 13.65 4.44q27.3 8.91 55.29 16.74l14.07 3.78 3.51.94 3.56.87 7.12 1.75 7.12 1.73c2.36.6 4.79 1.06 7.19 1.6l7.21 1.55c2.41.51 4.8 1.08 7.25 1.48l11.45 2v-4.33l-9.91-1.8c-19.14-3.73-38.01-8.28-56.61-13.34z" transform="translate(532.19)" fill="url(#l)"/><path d="M578 418.43c-18.57-5.1-37-10.5-55.23-16.3-4.55-1.45-9.12-2.86-13.66-4.33l-13.59-4.48c-9.08-2.94-18-6.08-27.05-9.13-35.94-12.38-71.41-25.49-106.6-39s-70.08-27.37-104.76-41.52-69.18-28.55-103.47-43.19S85.21 231 51.4 215.8l-.24-.1-.3.34.23.11q50.43 23.16 101.65 45.41t102.93 43.91Q307.51 327 360.1 347.55c35.09 13.67 70.47 27 106.36 39.58 9 3.11 17.93 6.32 27 9.33L507 401c4.53 1.5 9.1 3 13.65 4.44Q548 414.36 576 422.2l14 3.8 3.52.95 3.56.87 7.12 1.74 7.11 1.74c2.37.59 4.8 1.06 7.2 1.59l7.21 1.56c2.41.51 4.8 1.07 7.25 1.47l7 1.26v-4.35l-5.46-1c-19.08-3.78-37.93-8.34-56.51-13.4z" transform="translate(532.19)" fill="url(#m)"/><path d="M580.18 459.37c-18.58-5.11-37-10.5-55.23-16.3-4.55-1.45-9.13-2.87-13.67-4.34l-13.58-4.47c-9.08-2.94-18-6.08-27.06-9.13-35.94-12.39-71.4-25.5-106.59-39s-70.05-27.34-104.76-41.5-69.18-28.54-103.47-43.18-68.41-29.51-102.22-44.71l-.24-.11-.31.34.24.11q50.43 23.16 101.65 45.41t102.93 43.91q51.84 21.51 104.43 42.09c35.09 13.67 70.46 27 106.36 39.57 9 3.12 17.93 6.32 27 9.33l13.56 4.61c4.54 1.51 9.11 3 13.66 4.44q27.3 8.91 55.28 16.74l14.07 3.78 3.52.94 3.56.88 7.11 1.74 7.12 1.74c2.37.59 4.8 1 7.2 1.59l7.21 1.55c2.41.51 4.79 1.08 7.25 1.48l4.8.86v-4.36l-3.26-.59c-19.11-3.79-37.96-8.36-56.56-13.42z" transform="translate(532.19)" fill="url(#n)"/><path d="M577.25 404.79c-18.58-5.11-37-10.5-55.23-16.3-4.55-1.45-9.13-2.87-13.67-4.34l-13.58-4.47c-9.08-2.94-18-6.08-27.06-9.13-35.94-12.39-71.4-25.5-106.59-39s-70.12-27.34-104.76-41.5-69.18-28.54-103.47-43.18-68.41-29.51-102.22-44.71l-.24-.11-.31.34.24.11q50.43 23.16 101.64 45.41t102.93 43.91q51.84 21.51 104.43 42.09c35.09 13.67 70.46 27 106.36 39.57 9 3.12 17.93 6.32 27 9.33l13.56 4.57c4.54 1.51 9.11 3 13.66 4.44q27.3 8.91 55.28 16.74l14.07 3.78 3.52.94 3.56.88 7.11 1.74 7.12 1.74c2.37.59 4.8 1.05 7.2 1.59l7.21 1.55c2.41.51 4.79 1.08 7.25 1.48l7.73 1.38v-4.35l-6.19-1.12c-19.1-3.77-37.95-8.32-56.55-13.38z" transform="translate(532.19)" fill="url(#o)"/><path d="M574.27 349.19q-27.87-7.65-55.23-16.3c-4.56-1.45-9.13-2.86-13.67-4.34l-13.58-4.47c-9.09-2.94-18-6.08-27.06-9.13-35.94-12.38-71.4-25.5-106.59-39s-70.09-27.37-104.77-41.52-69.17-28.52-103.47-43.16-68.4-29.5-102.22-44.71l-.24-.11-.3.35.24.11Q97.81 170.06 149 192.32t103 43.91q51.84 21.5 104.42 42.08c35.09 13.67 70.47 27 106.36 39.58 9 3.11 17.93 6.32 27 9.32l13.57 4.58c4.53 1.5 9.11 2.95 13.66 4.43q27.28 8.91 55.28 16.74l14.07 3.78 3.52.95 3.55.87 7.12 1.74 7.12 1.74c2.36.59 4.8 1.06 7.19 1.59l7.22 1.56c2.41.51 4.79 1.07 7.24 1.47l10.68 1.92v-4.34l-9.18-1.67c-19.11-3.76-37.95-8.32-56.55-13.38z" transform="translate(532.19)" fill="url(#p)"/><path d="M575 362.84c-18.58-5.11-37-10.5-55.23-16.3-4.56-1.45-9.13-2.87-13.67-4.34l-13.58-4.47c-9.09-2.94-18-6.08-27.06-9.13-35.94-12.39-71.4-25.5-106.59-39s-70.08-27.36-104.76-41.52-69.18-28.54-103.47-43.19-68.41-29.5-102.22-44.7l-.24-.11-.31.34.24.11Q98.54 183.71 149.76 206t102.93 43.91q51.84 21.47 104.42 42.09c35.1 13.67 70.47 27 106.36 39.57 9 3.12 17.94 6.32 27 9.33l13.53 4.53c4.54 1.51 9.11 3 13.66 4.44Q545 358.78 573 366.61l14.07 3.78 3.52.94 3.55.87 7.12 1.74 7.12 1.74c2.37.6 4.8 1.06 7.19 1.6l7.22 1.55c2.41.51 4.79 1.08 7.25 1.48l10 1.78v-4.34l-8.45-1.53c-19.15-3.77-37.99-8.32-56.59-13.38z" transform="translate(532.19)" fill="url(#q)"/><path d="M575.78 377.5c-18.57-5.11-37-10.5-55.22-16.3-4.56-1.45-9.13-2.87-13.67-4.34l-13.59-4.47c-9.08-2.94-18-6.08-27.05-9.13-35.94-12.39-71.4-25.5-106.59-39s-70.09-27.37-104.77-41.53-69.18-28.54-103.47-43.18S83 190.07 49.2 174.87l-.24-.11-.3.34.24.11q50.43 23.16 101.64 45.41t102.94 43.91Q305.3 286 357.9 306.62c35.09 13.67 70.47 27 106.36 39.57 9 3.12 17.93 6.32 27 9.33l13.57 4.57c4.53 1.51 9.1 3 13.66 4.44q27.28 8.91 55.28 16.74l14.07 3.78 3.51.94 3.56.88 7.12 1.74 7.12 1.74c2.36.59 4.8 1 7.19 1.59l7.22 1.55c2.4.51 4.79 1.08 7.24 1.48l9.2 1.64v-4.34l-7.66-1.39c-19.11-3.77-37.95-8.32-56.56-13.38z" transform="translate(532.19)" fill="url(#r)"/><path d="M576.52 391.15q-27.87-7.66-55.23-16.31c-4.56-1.45-9.13-2.86-13.67-4.33L494 366c-9-2.91-18-6-27-9.1-35.94-12.38-71.4-25.49-106.59-39s-70.08-27.37-104.76-41.52-69.18-28.55-103.48-43.19-68.4-29.5-102.21-44.71l-.24-.1-.31.34.24.11q50.41 23.17 101.62 45.44t102.94 43.91q51.79 21.51 104.42 42.08c35.09 13.67 70.47 27 106.36 39.58 9 3.11 17.93 6.32 27 9.33l13.56 4.57c4.54 1.5 9.11 3 13.66 4.44q27.28 8.91 55.28 16.73l14.07 3.78 3.52.95 3.55.87 7.12 1.74 7.12 1.74c2.37.59 4.8 1.06 7.19 1.59l7.22 1.56c2.41.51 4.79 1.07 7.25 1.47l8.46 1.52v-4.35l-6.93-1.26c-19.06-3.76-37.94-8.32-56.54-13.37z" transform="translate(532.19)" fill="url(#s)"/><path d="M578.71 432.08c-18.57-5.11-37-10.5-55.22-16.3-4.56-1.45-9.13-2.87-13.67-4.34L496.23 407c-9.08-2.94-18-6.08-27.05-9.13-35.94-12.39-71.41-25.5-106.6-39s-70.08-27.37-104.76-41.53-69.18-28.54-103.47-43.18S86 244.65 52.13 229.45l-.24-.11-.3.34.24.11Q102.26 253 153.47 275.2t102.94 43.91q51.82 21.51 104.42 42.09c35.09 13.67 70.47 27 106.36 39.57 9 3.12 17.93 6.32 27 9.33l13.57 4.57c4.53 1.51 9.1 3 13.66 4.44q27.29 8.91 55.28 16.74l14.07 3.78 3.51.94 3.56.88 7.12 1.74 7.12 1.74c2.36.59 4.79 1.05 7.19 1.59l7.21 1.55c2.41.51 4.8 1.08 7.25 1.48l6.27 1.12v-4.35l-4.73-.86c-19.11-3.77-37.96-8.32-56.56-13.38z" transform="translate(532.19)" fill="url(#t)"/><path d="M344.63 59.31C379.72 73 415.1 86.29 451 98.89c9 3.11 17.93 6.32 27 9.33l13.57 4.57c4.53 1.5 9.1 3 13.65 4.44q27.3 8.91 55.29 16.74l14.06 3.77 3.52.95 3.56.87 7.12 1.74 7.11 1.74c2.37.59 4.8 1.06 7.2 1.59l7.21 1.56c2.41.51 4.8 1.07 7.25 1.47l14.63 2.62 7.84 1.14v-4.26l-6.53-1-14.4-2.62c-19.11-3.76-38-8.32-56.56-13.37s-37-10.51-55.23-16.31c-4.55-1.44-9.12-2.86-13.66-4.33L480 105.08c-9-2.94-18-6.08-27-9.08-36-12.43-71.43-25.54-106.62-39S276.3 29.61 241.62 15.46Q222.78 7.79 204.05 0h-4.78q20.41 8.69 40.93 17.23Q292 38.74 344.63 59.31z" transform="translate(532.19)" fill="url(#u)"/><path d="M449.47 70.58c9 3.12 17.93 6.32 27 9.33L490 84.48c4.53 1.51 9.1 3 13.65 4.44Q531 97.83 559 105.66l14 3.78 3.52.94 3.56.87 7.12 1.74 7.11 1.74c2.37.6 4.8 1.06 7.2 1.6l7.21 1.55c2.41.51 4.8 1.08 7.25 1.48l14.67 2.64 9.36 1.37v-4.26l-8-1.2-14.4-2.61c-19.11-3.77-38-8.32-56.56-13.38s-37-10.5-55.23-16.3c-4.55-1.45-9.12-2.87-13.66-4.34l-13.59-4.47c-9.08-2.94-18-6.08-27.05-9.13-35.94-12.39-71.41-25.5-106.6-39Q308.17 14.62 271.88 0h-6.29q38.54 15.78 77.52 31c35.09 13.68 70.47 27 106.36 39.58z" transform="translate(532.19)" fill="url(#v)"/><path d="M345.36 73c35.09 13.67 70.47 27 106.36 39.57 9 3.12 17.93 6.32 27 9.33l13.57 4.57c4.53 1.51 9.1 3 13.65 4.44q27.3 8.91 55.29 16.74l14.07 3.78 3.51.94 3.56.88 7.12 1.74 7.12 1.74c2.36.59 4.79 1.05 7.19 1.59l7.21 1.55c2.41.51 4.8 1.08 7.25 1.48l14.64 2.61 7.1 1v-4.26l-5.8-.87-14.4-2.61c-19.11-3.77-38-8.32-56.56-13.38s-37-10.5-55.23-16.3c-4.55-1.45-9.12-2.87-13.66-4.34l-13.59-4.47c-9.08-2.94-18-6.08-27.05-9.13-35.94-12.39-71.41-25.5-106.6-39S277 43.26 242.35 29.1Q207.09 14.76 172.13 0h-4q36.27 15.63 72.85 30.87Q292.77 52.38 345.36 73z" transform="translate(532.19)" fill="url(#w)"/><path d="M343.84 44.65c35.09 13.67 70.47 27 106.36 39.58 9 3.11 17.93 6.32 27 9.32l13.57 4.58c4.53 1.5 9.1 3 13.66 4.43q27.29 8.91 55.28 16.74l14.07 3.78 3.51 1 3.56.87 7.12 1.74 7.12 1.74c2.36.59 4.79 1.06 7.19 1.59l7.21 1.56c2.41.51 4.8 1.07 7.25 1.47l14.64 2.62 8.62 1.26v-4.27l-7.31-1.08-14.41-2.62c-19.11-3.76-38-8.32-56.56-13.38s-37-10.5-55.22-16.3c-4.56-1.45-9.13-2.86-13.67-4.34l-13.59-4.47c-9.08-2.94-18-6.08-27.05-9.13-35.94-12.38-71.41-25.5-106.6-39S275.51 15 240.83.8L238.9 0h-5.6c2 .86 4.07 1.72 6.12 2.57q51.83 21.5 104.42 42.08z" transform="translate(532.19)" fill="url(#x)"/><path d="M241.67 44.52Q293.51 66 346.09 86.6c35.09 13.67 70.47 27 106.36 39.58 9 3.11 17.93 6.32 27 9.33l13.55 4.57c4.53 1.5 9.11 3 13.66 4.44Q534 153.43 562 161.25l14 3.75 3.52.95 3.55.87 7.12 1.74 7.12 1.74c2.36.59 4.8 1.06 7.19 1.59l7.22 1.56c2.41.51 4.79 1.07 7.24 1.47l14.64 2.62 6.37.93v-4.27l-5.06-.75-14.41-2.62c-19.11-3.76-37.95-8.32-56.55-13.37S527 147 508.75 141.18c-4.56-1.45-9.13-2.86-13.67-4.33l-13.58-4.48c-9.09-2.94-18-6.08-27.06-9.13-35.94-12.38-71.4-25.49-106.59-39S277.76 56.9 243.08 42.75Q191.55 21.78 140.66 0h-3.31l1.38.61q51.17 22.32 102.94 43.91z" transform="translate(532.19)" fill="url(#y)"/><path d="M243.89 86q51.84 21.51 104.43 42.09c35.09 13.67 70.47 27 106.36 39.57 9 3.12 17.93 6.32 27 9.33l13.57 4.57c4.53 1.51 9.1 3 13.65 4.44q27.3 8.91 55.29 16.74l14.06 3.78 3.52.94 3.56.87 7.12 1.74 7.11 1.74c2.37.6 4.8 1.06 7.2 1.6L614 215c2.41.51 4.8 1.07 7.25 1.48l14.6 2.52 4.15.61v-4.28l-2.84-.42-14.4-2.61c-19.11-3.77-38-8.32-56.56-13.38s-37-10.5-55.23-16.31c-4.55-1.44-9.12-2.86-13.66-4.33l-13.59-4.47c-9.08-2.94-18-6.08-27.05-9.13-35.94-12.39-71.41-25.5-106.6-39S280 98.38 245.31 84.22 176.13 55.68 141.84 41q-47.25-20.19-94-41h-1.21Q93.48 21.42 141 42.08 192.13 64.4 243.89 86z" transform="translate(532.19)" fill="url(#z)"/><path d="M242.43 58.7q51.84 21.51 104.42 42.09c35.09 13.67 70.47 27 106.36 39.57 9 3.12 17.93 6.32 27 9.33l13.56 4.57c4.54 1.51 9.11 3 13.66 4.44q27.29 8.91 55.28 16.74l14.07 3.78 3.52.94 3.55.87 7.12 1.74 7.12 1.74c2.37.6 4.8 1.06 7.19 1.6l7.22 1.55c2.41.51 4.79 1.07 7.25 1.48l14.63 2.61 5.61.82v-4.27l-4.3-.64-14.41-2.61c-19.11-3.77-37.95-8.32-56.55-13.38s-37-10.5-55.23-16.3c-4.56-1.45-9.13-2.87-13.67-4.34l-13.58-4.47c-9.09-2.94-18-6.08-27.06-9.13-35.94-12.39-71.4-25.5-106.59-39s-70.07-27.34-104.75-41.5-69.18-28.54-103.48-43.19Q124.4 6.91 108.46 0h-2.58q16.78 7.44 33.61 14.79 51.16 22.32 102.94 43.91z" transform="translate(532.19)" fill="url(#A)"/><path d="M243.16 72.34Q295 93.85 347.59 114.43c35.09 13.67 70.46 27 106.36 39.58 9 3.11 17.93 6.32 27 9.32l13.56 4.58c4.54 1.5 9.11 3 13.66 4.43q27.3 8.91 55.28 16.74l14.07 3.78 3.52.95 3.56.87 7.11 1.74 7.12 1.74c2.37.59 4.8 1.06 7.2 1.59l7.21 1.56c2.41.5 4.79 1.07 7.25 1.47l14.63 2.62 4.88.71v-4.27l-3.57-.53-14.43-2.62c-19.11-3.76-38-8.32-56.56-13.38s-37-10.5-55.23-16.3c-4.55-1.45-9.13-2.86-13.67-4.34L483 160.2c-9.08-2.94-18-6.08-27.06-9.13-35.94-12.38-71.4-25.5-106.59-39s-70.09-27.34-104.77-41.49S175.4 42 141.11 27.39Q109.4 13.83 77.91 0H76q32 14.37 64.21 28.44 51.17 22.32 102.95 43.9z" transform="translate(532.19)" fill="url(#B)"/><path d="M474.27 39l13.57 4.58c4.53 1.5 9.1 3 13.66 4.44q27.29 8.9 55.28 16.73l14.07 3.78 3.51 1 3.56.87 7.08 1.66 7.12 1.74c2.36.59 4.8 1.06 7.19 1.59l7.25 1.61c2.41.51 4.8 1.07 7.25 1.47L628.45 81 640 82.72v-4.25L629.76 77l-14.41-2.62C596.24 70.57 577.4 66 558.79 61s-37-10.5-55.22-16.3c-4.56-1.45-9.13-2.86-13.67-4.33l-13.59-4.48c-9.08-2.94-18-6.08-27.05-9.13Q411.87 13.83 375.09 0h-8.45q40 15.29 80.63 29.65c9 3.11 17.93 6.35 27 9.35z" transform="translate(532.19)" fill="url(#C)"/><path d="M499.35 7.93q27.28 8.91 55.28 16.74l14.07 3.78 3.51.94 3.56.87 7.12 1.74 7.11 1.74c2.36.6 4.8 1.06 7.19 1.6l7.22 1.55c2.4.51 4.79 1.08 7.24 1.48L626.3 41l13.7 2v-4.27l-12.39-1.84-14.41-2.61c-19.11-3.77-38-8.32-56.55-13.38s-37-10.5-55.23-16.3c-4.56-1.45-9.13-2.87-13.67-4.34L487 0h-11.66l10.35 3.49c4.53 1.51 9.1 2.96 13.66 4.44z" transform="translate(532.19)" fill="url(#D)"/><path d="M568 14.8l3.52.95 3.56.87 7.12 1.74 7.12 1.74c2.36.59 4.79 1.06 7.19 1.59l7.21 1.56c2.41.51 4.8 1.07 7.25 1.47l14.63 2.62 14.4 2.1V25.2l-13.13-1.95-14.4-2.62c-19.11-3.76-38-8.32-56.56-13.38Q543.1 3.73 530.38 0h-13.72q18.48 5.73 37.24 11z" transform="translate(532.19)" fill="url(#E)"/><path d="M570.75 2.1l3.56.87 7.11 1.75 7.12 1.73c2.37.6 4.8 1.06 7.2 1.6L603 9.6c2.41.51 4.79 1.08 7.25 1.48l14.63 2.61 14.79 2.16.38.05v-4.24L626.14 9.6 611.74 7q-16-3.15-31.69-7h-17.11l4.29 1.16z" transform="translate(532.19)" fill="url(#F)"/><path d="M638.93 3.13l1.07.15V0h-21.27l5.42 1z" transform="translate(532.19)" fill="url(#G)"/><path d="M448.74 56.94c9 3.11 17.93 6.32 27 9.32l13.56 4.58c4.54 1.5 9.11 3 13.66 4.44q27.3 8.89 55.28 16.73l14.07 3.78 3.52.95 3.56.87 7.11 1.74 7.12 1.74c2.37.59 4.8 1.06 7.2 1.59l7.21 1.56c2.41.51 4.79 1.07 7.25 1.47l14.63 2.62L640 109.8v-4.26l-8.78-1.3-14.4-2.62c-19.11-3.76-38-8.32-56.56-13.38s-37-10.5-55.23-16.3c-4.55-1.45-9.13-2.86-13.67-4.33l-13.58-4.48c-9.08-2.94-18-6.08-27.06-9.13-35.94-12.38-71.4-25.49-106.59-39Q324.75 7.61 305.5 0h-6.94q21.84 8.77 43.82 17.36C377.47 31 412.84 44.34 448.74 56.94z" transform="translate(532.19)" fill="url(#H)"/><path d="M623.49 226c-19.11-3.76-38-8.32-56.56-13.38s-37-10.5-55.22-16.3c-4.56-1.45-9.13-2.86-13.67-4.34l-13.59-4.47c-9.08-2.94-18-6.08-27.05-9.13-35.94-12.38-71.41-25.5-106.6-39S280.72 112 246 97.87s-69.14-28.55-103.43-43.19S74.17 25.18 40.35 10l-.24-.11-.3.35.24.11q50.43 23.12 101.64 45.38t102.94 43.9q51.83 21.51 104.42 42.09c35.09 13.67 70.47 27 106.36 39.58 9 3.11 17.93 6.32 27 9.32L496 195.2c4.53 1.5 9.1 3 13.66 4.43q27.29 8.91 55.28 16.74l14.06 3.78 3.51.95 3.56.87 7.12 1.74 7.12 1.74c2.36.59 4.79 1.06 7.19 1.59l7.21 1.56c2.41.5 4.8 1.07 7.25 1.47l14.64 2.62 3.41.5v-4.28l-2.1-.31z" transform="translate(532.19)" fill="url(#I)"/><path d="M472.86 12.61l13.56 4.57c4.54 1.51 9.11 3 13.66 4.44q27.3 8.91 55.28 16.74l14.07 3.78 3.52.94 3.56.88 7.11 1.74 7.12 1.74c2.37.59 4.8 1.05 7.2 1.59l7.21 1.56c2.41.5 4.79 1.07 7.25 1.47l14.6 2.61 13 1.9v-4.25l-11.66-1.74-14.4-2.58c-19.11-3.76-38-8.32-56.56-13.38s-37-10.5-55.23-16.3c-4.55-1.48-9.15-2.9-13.67-4.32L474.9 9.48c-9.08-2.94-18-6.08-27.06-9.13l-1-.35h-10.25c3.09 1.1 6.17 2.2 9.27 3.28 8.99 3.12 17.93 6.32 27 9.33z" transform="translate(532.19)" fill="url(#J)"/><path d="M473.54 25.33l13.57 4.57c4.53 1.51 9.1 3 13.65 4.44q27.3 8.91 55.29 16.74l14.06 3.78 3.52.94 3.56.88 7.12 1.74 7.12 1.74c2.36.59 4.79 1.05 7.19 1.59l7.21 1.55c2.41.51 4.8 1.08 7.25 1.48l14.63 2.61 12.29 1.8v-4.26l-11-1.63-14.4-2.61c-19.11-3.77-38-8.32-56.56-13.38S521 36.81 502.83 31c-4.55-1.45-9.12-2.87-13.66-4.34l-13.59-4.46c-9.08-2.94-18-6.08-27.05-9.13q-18.6-6.4-37-13.07h-9.33q22.05 8.16 44.34 16c8.99 3.12 17.93 6.32 27 9.33z" transform="translate(532.19)" fill="url(#K)"/><path d="M448 43.29c9 3.12 17.93 6.32 27 9.33l13.56 4.57c4.54 1.51 9.11 3 13.66 4.44q27.28 8.91 55.28 16.74l14.07 3.78 3.52.94 3.55.88 7.12 1.74 7.12 1.74c2.37.59 4.8 1 7.19 1.59l7.22 1.55c2.41.51 4.79 1.08 7.25 1.48l14.63 2.61L640 96.26V92l-9.51-1.42L616.08 88c-19.11-3.77-38-8.32-56.55-13.38s-37-10.5-55.23-16.3c-4.56-1.45-9.13-2.87-13.67-4.34l-13.58-4.47C468 46.55 459 43.41 450 40.36c-35.94-12.39-71.4-25.5-106.59-39-1.2-.43-2.41-.9-3.58-1.36h-7.62c3.14 1.24 6.28 2.49 9.43 3.72C376.73 17.39 412.11 30.7 448 43.29z" transform="translate(532.19)" fill="url(#L)"/><path d="M548.12 947.47c-4.55-1.44-9.12-2.86-13.66-4.33l-13.59-4.47c-9.08-2.94-18-6.08-27.05-9.13-35.94-12.39-71.41-25.5-106.6-39S317.14 863.19 282.46 849 213.28 820.49 179 805.85s-68.41-29.5-102.22-44.71l-.24-.1-.3.34.24.11q50.41 23.16 101.64 45.41t102.94 43.91q51.82 21.51 104.42 42.08c35.09 13.67 70.47 27 106.36 39.58 9 3.12 17.93 6.32 27 9.33l13.57 4.57c4.53 1.5 9.1 3 13.65 4.44q27.3 8.91 55.29 16.74l14.07 3.77 3.51.95 3.56.87 7.12 1.74 7.12 1.74c1.08.27 2.18.52 3.28.76v-4.45c-12.32-2.78-24.54-5.86-36.65-9.15-18.58-5.11-37.03-10.51-55.24-16.31z" transform="translate(532.19)" opacity=".1" fill="url(#M)"/><path d="M548.86 961.12c-4.56-1.45-9.13-2.87-13.67-4.34l-13.58-4.47c-9.09-2.94-18.05-6.08-27.06-9.13-35.94-12.39-71.4-25.5-106.59-39s-70.09-27.37-104.77-41.53S214 834.14 179.72 819.5 111.32 790 77.5 774.79l-.24-.11-.26.32.24.11q50.43 23.16 101.64 45.42t102.94 43.9q51.8 21.57 104.38 42.11c35.09 13.67 70.47 27 106.36 39.57 9 3.12 17.93 6.32 27 9.33l13.57 4.56c4.53 1.51 9.11 3 13.66 4.44q27.29 8.91 55.28 16.74l14.07 3.82 3.52.94 3.55.88 7.12 1.74 7.12 1.74c.84.21 1.7.4 2.55.59v-4.45q-18.11-4.11-35.91-9c-18.58-5.13-37.02-10.52-55.23-16.32z" transform="translate(532.19)" opacity=".07" fill="url(#N)"/><path d="M547.39 933.83c-4.55-1.45-9.13-2.87-13.66-4.34L520.14 925c-9.08-2.94-18-6.08-27.05-9.13-35.95-12.38-71.41-25.5-106.6-39s-70.08-27.37-104.76-41.53-69.18-28.54-103.47-43.18S109.85 762.7 76 747.5l-.24-.11-.31.34.24.11q50.47 23.16 101.69 45.42t102.93 43.9q51.84 21.51 104.43 42.09c35.09 13.67 70.46 27 106.36 39.57 9 3.12 17.93 6.32 27 9.33l13.57 4.57c4.53 1.51 9.1 3 13.65 4.44q27.3 8.91 55.28 16.74l14.07 3.78 3.52.94 3.56.88 7.11 1.74L636 963c1.33.33 2.68.62 4 .91v-4.44q-18.86-4.25-37.38-9.32C584 945 565.6 939.63 547.39 933.83z" transform="translate(532.19)" opacity=".15" fill="url(#O)"/><path d="M546.71 921.06c-4.56-1.45-9.13-2.87-13.67-4.34l-13.59-4.47c-9.08-2.94-18-6.08-27.05-9.13-35.94-12.38-71.4-25.5-106.59-39s-70.09-27.34-104.81-41.5-69.18-28.54-103.47-43.18-68.4-29.51-102.22-44.71l-.24-.11-.3.34.24.11q50.43 23.16 101.64 45.42t102.94 43.9q51.84 21.51 104.42 42.09c35.09 13.67 70.47 27 106.36 39.57 9 3.12 17.93 6.32 27 9.33L531 920c4.53 1.51 9.1 3 13.66 4.44q27.29 8.91 55.28 16.74l14.06 3.73 3.51.94 3.56.88 7.12 1.74 7.12 1.74c1.55.39 3.13.72 4.7 1v-4.43q-19.2-4.3-38.06-9.47c-18.59-5.06-37.03-10.45-55.24-16.25z" transform="translate(532.19)" opacity=".2" fill="url(#P)"/><path d="M543 851.82c-4.55-1.45-9.13-2.87-13.67-4.34L515.74 843c-9.08-2.94-18-6.08-27.06-9.13-35.94-12.39-71.4-25.5-106.59-39S312 767.54 277.33 753.38s-69.18-28.54-103.47-43.18-68.41-29.51-102.22-44.71l-.24-.11-.31.34.24.11Q121.76 689 173 711.24t102.93 43.91q51.84 21.51 104.43 42.09c35.09 13.67 70.46 27 106.35 39.57 9 3.12 17.94 6.32 27 9.33l13.56 4.57c4.54 1.51 9.11 3 13.66 4.44q27.3 8.91 55.28 16.74l14.07 3.78 3.52.94 3.56.88 7.11 1.74 7.12 1.74c2.37.59 4.8 1 7.2 1.59l1.22.26v-4.4c-14.06-3.08-28-6.55-41.78-10.3-18.59-5.12-37.03-10.5-55.23-16.3z" transform="translate(532.19)" opacity=".45" fill="url(#Q)"/><path d="M581.64 486.66c-18.57-5.11-37-10.5-55.23-16.3-4.55-1.45-9.12-2.87-13.66-4.34l-13.59-4.47c-9.08-2.94-18-6.08-27.05-9.13-35.94-12.39-71.41-25.5-106.6-39s-70.08-27.36-104.76-41.52-69.18-28.54-103.47-43.18S88.88 299.23 55.06 284l-.24-.11-.3.34.24.11q50.43 23.16 101.64 45.41t102.94 43.91q51.82 21.51 104.42 42.09c35.09 13.67 70.47 27 106.36 39.57 9 3.12 17.93 6.32 27 9.33l13.57 4.57c4.53 1.51 9.1 3 13.65 4.44q27.3 8.91 55.29 16.74l14.07 3.78 3.51.94 3.56.88 7.12 1.74 7.12 1.74c2.36.59 4.79 1.05 7.19 1.59l7.21 1.55c2.41.51 4.8 1.08 7.25 1.48l3.34.59v-4.36l-1.8-.32c-19.11-3.74-37.96-8.29-56.56-13.35z" transform="translate(532.19)" fill="url(#R)"/><path d="M543.72 865.46c-4.55-1.45-9.12-2.86-13.66-4.33l-13.59-4.48c-9.08-2.94-18-6.08-27.05-9.13-35.94-12.38-71.41-25.49-106.6-39S312.74 781.18 278.06 767s-69.18-28.55-103.47-43.19-68.41-29.5-102.22-44.71l-.24-.1-.3.34.23.11q50.43 23.16 101.65 45.41t102.93 43.94q51.84 21.51 104.43 42.08c35.09 13.67 70.47 27 106.36 39.58 9 3.11 17.93 6.32 27 9.33l13.57 4.57c4.53 1.5 9.1 2.95 13.65 4.44q27.3 8.9 55.29 16.73l14.06 3.78 3.52 1 3.56.87 7.12 1.74 7.11 1.74c2.37.59 4.8 1.06 7.2 1.59l.49.11v-4.46c-13.81-3-27.5-6.45-41-10.14-18.62-5.1-37.07-10.5-55.28-16.3z" transform="translate(532.19)" opacity=".4" fill="url(#S)"/><path d="M546 907.41c-4.55-1.44-9.12-2.86-13.66-4.33l-13.59-4.47c-9.08-2.94-18-6.08-27.05-9.13-35.94-12.39-71.41-25.5-106.6-39S315 823.13 280.31 809s-69.18-28.55-103.47-43.19-68.41-29.5-102.22-44.7l-.24-.11-.3.34.24.11q50.42 23.14 101.68 45.39t102.9 43.91q51.83 21.51 104.42 42.08c35.09 13.67 70.47 27 106.36 39.58 9 3.12 17.93 6.32 27 9.33l13.57 4.57c4.53 1.51 9.1 3 13.65 4.44q27.3 8.91 55.29 16.74l14.07 3.77 3.51 1 3.56.87 7.12 1.74 7.12 1.74c1.79.45 3.61.83 5.43 1.21v-4.42c-13-2.91-26-6.15-38.8-9.63-18.57-5.16-37.02-10.56-55.2-16.36z" transform="translate(532.19)" opacity=".25" fill="url(#T)"/><path d="M545.24 893.77c-4.55-1.45-9.13-2.87-13.66-4.34L518 885c-9.08-2.94-18-6.08-27.05-9.13-35.95-12.38-71.41-25.5-106.6-39s-70.08-27.37-104.76-41.53-69.18-28.54-103.47-43.18-68.42-29.52-102.23-44.72l-.24-.11-.31.34.24.11Q124 730.94 175.23 753.2t102.93 43.9q51.84 21.51 104.43 42.09c35.09 13.67 70.46 27 106.36 39.57 9 3.12 17.93 6.32 27 9.33l13.57 4.57c4.53 1.51 9.1 3 13.65 4.44q27.3 8.91 55.28 16.74l14.07 3.78 3.52.94 3.56.88 7.11 1.74 7.12 1.74c2 .51 4.11.92 6.17 1.37v-4.42c-13.3-3-26.48-6.25-39.53-9.8-18.58-5.07-37.02-10.5-55.23-16.3z" transform="translate(532.19)" opacity=".3" fill="url(#U)"/><path d="M542.26 838.17c-4.56-1.45-9.13-2.86-13.67-4.33L515 829.36c-9.09-2.94-18-6.08-27.06-9.13-35.94-12.38-71.4-25.49-106.59-39s-70.08-27.37-104.77-41.52-69.17-28.55-103.47-43.19-68.4-29.5-102.21-44.71l-.25-.1-.3.34.24.11Q121 675.35 172.24 697.6t102.94 43.91Q327 763 379.6 783.59c35.09 13.67 70.47 27 106.36 39.58 9 3.11 17.93 6.32 27 9.33l13.56 4.57c4.54 1.5 9.11 3 13.66 4.44q27.28 8.9 55.28 16.73l14.08 3.76 3.52 1 3.55.87 7.12 1.74 7.12 1.74c2.37.59 4.8 1.06 7.19 1.59l2 .43v-4.4c-14.31-3.12-28.48-6.65-42.51-10.46q-27.91-7.69-55.27-16.34z" transform="translate(532.19)" opacity=".5" fill="url(#V)"/><path d="M544.45 879.11c-4.55-1.45-9.12-2.87-13.66-4.34l-13.59-4.47c-9.08-2.94-18-6.08-27.05-9.13-35.94-12.39-71.41-25.5-106.6-39s-70.08-27.36-104.76-41.52-69.18-28.54-103.47-43.18S106.92 708 73.1 692.78l-.24-.11-.3.34.24.11q50.43 23.16 101.64 45.41t102.94 43.91q51.83 21.51 104.42 42.09c35.09 13.67 70.47 27 106.36 39.57 9 3.12 17.93 6.32 27 9.33l13.57 4.57c4.53 1.51 9.1 3 13.65 4.44q27.3 8.91 55.29 16.74l14.07 3.82 3.51.94 3.56.88 7.12 1.74 7.12 1.74c2.28.57 4.63 1 7 1.54v-4.41c-13.57-3-27-6.36-40.32-10-18.62-5.13-37.07-10.52-55.28-16.32z" transform="translate(532.19)" opacity=".35" fill="url(#W)"/><path d="M541.52 824.53c-4.55-1.45-9.12-2.87-13.66-4.34l-13.59-4.47c-9.08-2.94-18-6.08-27-9.13-35.94-12.39-71.41-25.5-106.6-39s-70.08-27.36-104.76-41.52-69.18-28.54-103.47-43.18S104 653.4 70.17 638.2l-.24-.11-.3.34.24.11Q120.3 661.7 171.51 684t102.94 43.91q51.82 21.46 104.42 42.09c35.09 13.67 70.47 27 106.36 39.57 9 3.12 17.93 6.32 27 9.33l13.57 4.57c4.53 1.51 9.1 3 13.65 4.44q27.3 8.91 55.29 16.74l14.07 3.78 3.51.94 3.56.88 7.12 1.74 7.12 1.74c2.36.59 4.79 1.05 7.19 1.59l2.69.58v-4.4c-14.56-3.16-29-6.74-43.25-10.62-18.57-5.16-37.02-10.55-55.23-16.35z" transform="translate(532.19)" opacity=".55" fill="url(#X)"/><path d="M533 593.16c-4.56-1.45-9.13-2.86-13.67-4.34l-13.59-4.47c-9.08-2.94-18-6.08-27.05-9.13-35.94-12.38-71.4-25.5-106.59-39s-70.1-27.34-104.76-41.49-69.18-28.55-103.47-43.19S95.47 422 61.65 406.83l-.24-.11-.3.35.24.11q50.43 23.15 101.65 45.41t102.94 43.9q51.83 21.51 104.41 42.09c35.09 13.67 70.47 27 106.36 39.58 9 3.11 17.93 6.32 27 9.32l13.57 4.58c4.53 1.5 9.1 3 13.66 4.43q27.28 8.91 55.28 16.74l14.07 3.77 3.51 1 3.56.87 7.12 1.74 7.12 1.74c2.36.59 4.8 1.06 7.19 1.59l7.22 1.56 4 .85v-4.44c-17.47-3.57-34.72-7.77-51.76-12.41-18.59-5.14-37.04-10.5-55.25-16.34z" transform="translate(532.19)" fill="url(#Y)"/><path d="M532 646.47c-4.56-1.45-9.13-2.87-13.67-4.34l-13.58-4.47c-9.09-2.94-18-6.08-27.06-9.13-35.94-12.39-71.4-25.5-106.59-39S301 562.19 266.31 548s-69.18-28.54-103.48-43.18-68.4-29.51-102.21-44.71l-.24-.11-.31.34.24.11Q110.74 483.64 162 505.9t102.94 43.9q51.84 21.51 104.42 42.09c35.09 13.67 70.47 27 106.36 39.57 9 3.12 17.93 6.32 27 9.33l13.56 4.57c4.54 1.51 9.11 3 13.66 4.44q27.29 8.91 55.28 16.74l14.07 3.78 3.52.94 3.55.88 7.12 1.74 7.12 1.74c2.37.59 4.8 1 7.19 1.59l7.22 1.56c1.68.35 3.35.73 5 1.06v-4.44c-17.82-3.61-35.42-7.89-52.8-12.62-18.59-5.11-37.03-10.5-55.21-16.3z" transform="translate(532.19)" fill="url(#Z)"/><path d="M533.74 606.8c-4.56-1.44-9.13-2.86-13.67-4.33L506.49 598c-9.09-2.94-18-6.08-27.06-9.13-35.94-12.39-71.4-25.5-106.59-39s-70.08-27.36-104.76-41.52-69.18-28.52-103.48-43.17-68.4-29.5-102.21-44.7l-.24-.11-.31.34.24.11q50.43 23.18 101.64 45.41t102.94 43.91q51.84 21.51 104.42 42.09c35.09 13.67 70.47 27 106.36 39.57 9 3.12 17.93 6.32 27 9.33L518 605.7c4.54 1.51 9.11 3 13.66 4.44Q559 619.05 587 626.88l14 3.78 3.52.94 3.55.87 7.12 1.74 7.12 1.74c2.37.6 4.8 1.06 7.19 1.6l7.22 1.55 3.26.71v-4.44c-17.22-3.54-34.23-7.69-51-12.26-18.59-5.11-36.98-10.5-55.24-16.31z" transform="translate(532.19)" fill="url(#aa)"/><path d="M530.55 620.1c-4.55-1.44-9.12-2.86-13.66-4.33l-13.59-4.47c-9.08-2.94-18-6.08-27.05-9.13-35.94-12.39-71.41-25.5-106.6-39s-70.08-27.36-104.76-41.52-69.18-28.55-103.47-43.19S93 449 59.2 433.78l-.24-.11-.3.34.24.11q50.42 23.16 101.64 45.41t102.93 43.91q51.84 21.51 104.43 42.09c35.09 13.67 70.47 27 106.36 39.57 9 3.12 17.93 6.32 27 9.33l13.57 4.57c4.53 1.51 9.1 3 13.65 4.44q27.3 8.91 55.29 16.74l14.06 3.82 3.52.94 3.56.87 7.12 1.74 7.11 1.74c2.37.6 4.8 1.06 7.2 1.6l7.21 1.55c2.15.45 4.28 1 6.45 1.33v-4.42c-18.31-3.67-36.38-8-54.22-12.9-18.57-5.15-37.02-10.54-55.23-16.35z" transform="translate(532.19)" fill="url(#ab)"/><path d="M531.24 632.82c-4.56-1.44-9.13-2.86-13.67-4.33L504 624c-9.08-2.94-18-6.08-27.05-9.14-35.94-12.38-71.4-25.49-106.59-39s-70.09-27.37-104.77-41.52-69.2-28.5-103.49-43.14-68.4-29.5-102.22-44.71l-.24-.1-.3.34.24.11Q110 470 161.22 492.25t102.94 43.91q51.84 21.51 104.42 42.08c35.09 13.67 70.47 27 106.36 39.58 9 3.11 17.93 6.32 27 9.33l13.57 4.57c4.53 1.5 9.1 3 13.66 4.44q27.29 8.91 55.28 16.74l14.07 3.77 3.51 1 3.56.87 7.12 1.74 7.12 1.74c2.36.59 4.8 1.06 7.19 1.59l7.21 1.56c1.93.4 3.84.84 5.77 1.21v-4.44c-18.07-3.64-35.92-8-53.54-12.76-18.57-5.18-37.02-10.56-55.22-16.36z" transform="translate(532.19)" fill="url(#ac)"/><path d="M532.27 579.51c-4.55-1.44-9.12-2.86-13.66-4.33L505 570.71c-9.08-2.94-18-6.08-27-9.13-35.94-12.39-71.41-25.5-106.6-39s-70.08-27.36-104.76-41.52-69.18-28.54-103.47-43.19-68.41-29.5-102.22-44.7l-.24-.11-.3.34.24.11q50.35 23.18 101.61 45.43t102.93 43.91q51.81 21.51 104.43 42.09c35.09 13.67 70.47 27 106.36 39.57 9 3.12 17.93 6.32 27 9.33l13.57 4.57c4.53 1.51 9.1 3 13.65 4.44q27.3 8.91 55.29 16.74l14.07 3.78 3.51.94 3.56.87 7.12 1.74 7.12 1.74c2.36.6 4.79 1.06 7.19 1.6l7.21 1.55c1.58.33 3.15.69 4.73 1v-4.44c-17.72-3.6-35.21-7.86-52.5-12.56-18.57-5.1-37.02-10.49-55.23-16.3z" transform="translate(532.19)" fill="url(#ad)"/><path d="M583.11 514c-18.58-5.11-37-10.5-55.23-16.3-4.55-1.45-9.13-2.87-13.67-4.34l-13.58-4.47c-9.08-2.94-18-6.08-27.06-9.13-35.94-12.39-71.4-25.5-106.59-39s-70.08-27.36-104.76-41.52S193 370.67 158.75 356s-68.41-29.48-102.22-44.68l-.24-.11-.31.34.24.11q50.43 23.16 101.65 45.41T260.8 401q51.84 21.51 104.43 42.09c35.09 13.67 70.46 27 106.35 39.57 9 3.12 17.94 6.32 27 9.33l13.56 4.57c4.54 1.51 9.11 3 13.66 4.44q27.3 8.91 55.28 16.74l14.07 3.78 3.52.94 3.56.88 7.11 1.74 7.12 1.74c2.37.59 4.8 1.05 7.19 1.59l7.22 1.55c2.41.51 4.79 1.08 7.25 1.48l1.87.33v-4.36l-.34-.06c-19.1-3.79-37.94-8.35-56.54-13.35z" transform="translate(532.19)" fill="url(#ae)"/><path d="M582.38 500.3q-27.87-7.65-55.23-16.3c-4.56-1.45-9.13-2.86-13.67-4.33l-13.58-4.48c-9.09-2.94-18-6.08-27.06-9.13-35.94-12.38-71.4-25.49-106.59-39s-70.09-27.37-104.77-41.52S192.31 357 158 342.38s-68.4-29.5-102.22-44.71l-.24-.11-.3.35.24.11q50.43 23.14 101.64 45.41t102.94 43.91q51.84 21.51 104.42 42.08c35.09 13.67 70.47 27 106.36 39.58 9 3.11 17.93 6.32 27 9.32l13.56 4.58c4.54 1.5 9.11 3 13.66 4.44q27.28 8.9 55.28 16.73l14.07 3.78 3.52.95 3.55.87 7.12 1.74 7.12 1.74c2.36.59 4.8 1.06 7.19 1.59l7.22 1.56c2.41.51 4.79 1.07 7.24 1.47l2.61.47v-4.36l-1.07-.2c-19.09-3.76-37.91-8.32-56.53-13.38z" transform="translate(532.19)" fill="url(#af)"/><path d="M528.61 511.29c-4.55-1.45-9.13-2.86-13.66-4.33l-13.59-4.48c-9.08-2.94-18-6.08-27.05-9.13-35.95-12.38-71.41-25.49-106.6-39S297.63 427 263 412.86s-69.18-28.55-103.47-43.19S91.07 340.17 57.26 325l-.24-.11-.31.35.24.11q50.43 23.15 101.65 45.41t102.93 43.91q51.84 21.5 104.43 42.08c35.09 13.67 70.46 27 106.36 39.58 9 3.11 17.93 6.32 27 9.32l13.57 4.58c4.53 1.5 9.1 2.95 13.65 4.44q27.3 8.89 55.29 16.73l14.06 3.78 3.52 1 3.59.82 7.12 1.74 7.11 1.74c2.37.59 4.8 1.06 7.2 1.59l7.21 1.56c2.41.51 4.8 1.07 7.25 1.47l1.14.21v-4.38c-19-3.75-37.69-8.27-56.16-13.3s-37.05-10.54-55.26-16.34z" transform="translate(532.19)" fill="url(#ag)"/><path d="M530.81 552.23c-4.56-1.45-9.13-2.87-13.67-4.34l-13.58-4.47c-9.09-2.94-18-6.08-27.06-9.13-35.94-12.39-71.4-25.5-106.59-39s-70.08-27.29-104.76-41.5S196 425.25 161.68 410.6s-68.41-29.5-102.22-44.7l-.24-.11-.31.34.24.11q50.43 23.16 101.65 45.41t102.93 43.91q51.84 21.51 104.42 42.09c35.1 13.67 70.47 27 106.36 39.57 9 3.12 17.94 6.32 27 9.33l13.56 4.57c4.54 1.51 9.11 3 13.66 4.44Q556 564.47 584 572.3l14.07 3.78 3.52.94 3.55.87 7.12 1.74 7.12 1.74c2.37.6 4.8 1.06 7.19 1.6l7.22 1.55c2.06.44 4.11.91 6.19 1.29v-4.43c-18.22-3.66-36.2-8-54-12.85-18.52-5.11-36.98-10.53-55.17-16.3z" transform="translate(532.19)" fill="url(#ah)"/><path d="M529.34 524.94c-4.55-1.45-9.12-2.87-13.66-4.34l-13.59-4.47c-9.08-2.94-18-6.08-27-9.13-35.94-12.39-71.41-25.5-106.6-39s-70.08-27.36-104.76-41.52S194.5 398 160.21 383.32 91.81 353.81 58 338.61l-.24-.11-.3.34.24.11q50.43 23.16 101.64 45.41t102.94 43.91q51.83 21.51 104.42 42.09c35.09 13.67 70.47 27 106.36 39.57 9 3.12 17.93 6.32 27 9.33l13.57 4.57c4.53 1.51 9.1 3 13.65 4.44q27.3 8.91 55.29 16.74l14.07 3.78 3.51.94 3.56.87 7.12 1.75 7.12 1.73c2.36.6 4.79 1.06 7.19 1.6l7.21 1.55c2.41.51 4.8 1.08 7.25 1.48l.41.07v-4.39c-18.72-3.72-37.19-8.19-55.43-13.15-18.58-5.11-37.03-10.5-55.24-16.3z" transform="translate(532.19)" fill="url(#ai)"/><path d="M530.08 538.58c-4.56-1.45-9.13-2.86-13.67-4.34l-13.58-4.47c-9.09-2.94-18-6.08-27.06-9.13-35.94-12.38-71.4-25.5-106.59-39s-70.09-27.37-104.77-41.52S195.24 411.6 160.94 397s-68.4-29.5-102.22-44.71l-.24-.11-.3.35.24.11q50.43 23.1 101.64 45.36T263 441.92q51.84 21.5 104.42 42.08c35.09 13.67 70.47 27 106.36 39.58 9 3.11 17.93 6.32 27 9.32l13.57 4.58c4.53 1.5 9.11 2.95 13.66 4.43q27.29 8.91 55.28 16.74l14.07 3.78 3.52 1 3.55.87 7.12 1.74 7.12 1.74c2.36.59 4.8 1.06 7.19 1.59l7.22 1.56c2.3.48 4.58 1 6.92 1.41v-4.4c-18.47-3.7-36.7-8.11-54.69-13q-27.87-7.71-55.23-16.36z" transform="translate(532.19)" fill="url(#aj)"/><path d="M531.54 565.87c-4.55-1.45-9.13-2.86-13.67-4.34l-13.58-4.47c-9.08-2.94-18-6.08-27.05-9.13-35.95-12.38-71.41-25.5-106.6-39s-70.08-27.37-104.76-41.52-69.18-28.55-103.47-43.19S94 394.75 60.19 379.54l-.24-.11-.31.35.24.11Q110.31 403 161.53 425.3t102.93 43.91q51.84 21.5 104.43 42.08c35.09 13.67 70.46 27 106.36 39.58 9 3.11 17.93 6.32 27 9.32l13.57 4.58c4.53 1.5 9.1 3 13.65 4.43q27.3 8.91 55.28 16.74l14.07 3.78 3.52.95 3.56.87 7.11 1.74 7.12 1.74c2.37.59 4.8 1.06 7.2 1.59l7.21 1.56c1.82.38 3.63.8 5.46 1.15v-4.44c-18-3.63-35.71-7.94-53.23-12.71q-27.87-7.65-55.23-16.3z" transform="translate(532.19)" fill="url(#ak)"/><path d="M539.3 783.05c-4.56-1.44-9.13-2.86-13.67-4.33l-13.58-4.47c-9.09-2.94-18-6.08-27.06-9.13-35.94-12.39-71.4-25.5-106.59-39s-70.08-27.36-104.76-41.52-69.18-28.55-103.47-43.19S101.76 611.93 68 596.73l-.24-.11-.31.34.24.11q50.43 23.16 101.65 45.41t102.93 43.91q51.84 21.51 104.42 42.09c35.1 13.67 70.47 27 106.36 39.57 9 3.12 17.94 6.32 27 9.33l13.52 4.62c4.54 1.51 9.11 3 13.66 4.44q27.3 8.91 55.28 16.74l14.07 3.78 3.52.94 3.55.87 7.12 1.74 7.12 1.74c2.37.6 4.8 1.06 7.19 1.6l4.92 1.06v-4.41c-15.32-3.27-30.48-7-45.47-11.09-18.53-5.16-37.02-10.55-55.23-16.36z" transform="translate(532.19)" opacity=".7" fill="url(#al)"/><path d="M538.57 769.41c-4.56-1.45-9.13-2.86-13.67-4.34l-13.58-4.47c-9.09-2.94-18-6.08-27.06-9.13-35.94-12.38-71.4-25.5-106.59-39S307.58 685.13 272.9 671s-69.17-28.55-103.47-43.19S101 598.29 67.21 583.08L67 583l-.3.35.24.1q50.43 23.16 101.64 45.42t102.94 43.9q51.84 21.51 104.42 42.09c35.09 13.67 70.47 27 106.36 39.58 9 3.11 17.93 6.32 27 9.32l13.57 4.58c4.53 1.5 9.11 3 13.66 4.43q27.29 8.91 55.28 16.74l14.07 3.78 3.52 1 3.55.87 7.12 1.74 7.12 1.74c2.36.59 4.8 1.06 7.19 1.59l5.65 1.22V797c-15.57-3.31-31-7.1-46.2-11.25q-27.9-7.69-55.26-16.34z" transform="translate(532.19)" opacity=".8" fill="url(#am)"/><path d="M537.05 741.1c-4.56-1.44-9.13-2.86-13.67-4.33l-13.58-4.47c-9.09-2.94-18-6.08-27.06-9.14-35.94-12.38-71.4-25.49-106.59-39s-70.08-27.37-104.77-41.52-69.17-28.55-103.47-43.19S99.51 570 65.7 554.77l-.25-.1-.3.34.24.11q50.43 23.16 101.61 45.41t103 43.91q51.84 21.51 104.42 42.08c35.09 13.67 70.47 27 106.36 39.58 9 3.11 17.93 6.32 27 9.33l13.54 4.57c4.54 1.5 9.11 3 13.66 4.44q27.28 8.91 55.28 16.74l14.07 3.82 3.52.95 3.55.87 7.12 1.74 7.12 1.74c2.37.59 4.8 1.06 7.19 1.59l7.17 1.55V769c-16.09-3.38-32-7.3-47.72-11.57q-27.87-7.69-55.23-16.33z" transform="translate(532.19)" fill="url(#an)"/><path d="M537.78 754.75c-4.55-1.45-9.13-2.87-13.67-4.34l-13.58-4.47c-9.08-2.94-18-6.08-27.06-9.13-35.94-12.39-71.4-25.5-106.59-39s-70.08-27.37-104.76-41.53-69.18-28.54-103.47-43.18-68.41-29.51-102.22-44.71l-.24-.11-.31.34.24.11q50.43 23.16 101.65 45.42t102.93 43.9q51.84 21.51 104.43 42.09c35.09 13.67 70.46 27 106.35 39.57 9 3.12 17.94 6.32 27 9.33l13.56 4.57c4.54 1.51 9.11 3 13.66 4.44Q563 767 591 774.82l14.07 3.78 3.52.94 3.56.88 7.11 1.74 7.12 1.74c2.37.59 4.8 1.05 7.2 1.59l6.43 1.39v-4.41c-15.84-3.35-31.5-7.21-47-11.42-18.58-5.11-37.01-10.5-55.23-16.3z" transform="translate(532.19)" opacity=".9" fill="url(#ao)"/><path d="M532.7 660.11c-4.55-1.44-9.13-2.86-13.67-4.33l-13.58-4.48c-9.08-2.94-18-6.08-27.06-9.13-35.94-12.38-71.4-25.49-106.59-39s-70.08-27.34-104.8-41.49-69.18-28.55-103.47-43.19S95.16 489 61.35 473.78l-.24-.1-.31.34.24.11q50.43 23.16 101.65 45.41t102.93 43.91q51.84 21.55 104.43 42.08c35.09 13.67 70.46 27 106.36 39.58 9 3.11 17.93 6.32 27 9.33L517 659c4.54 1.5 9.11 3 13.66 4.44q27.3 8.91 55.28 16.74L600 684l3.52.95 3.56.87 7.11 1.74 7.12 1.74c2.37.59 4.8 1.06 7.2 1.59l7.21 1.56 4.3.92v-4.44c-17.57-3.59-34.93-7.81-52.07-12.47q-27.89-7.71-55.25-16.35z" transform="translate(532.19)" fill="url(#ap)"/><path d="M540 796.7c-4.55-1.45-9.13-2.86-13.66-4.34l-13.59-4.47c-9.08-2.94-18-6.08-27-9.13-36-12.38-71.41-25.5-106.6-39s-70.08-27.37-104.76-41.52-69.18-28.55-103.47-43.19-68.41-29.5-102.22-44.71l-.24-.11-.31.34.24.11Q118.8 633.87 170 656.13T273 700q51.84 21.51 104.43 42.09c35.09 13.67 70.46 27 106.36 39.58 9 3.11 17.93 6.32 27 9.32l13.57 4.58c4.53 1.5 9.1 2.95 13.65 4.43q27.3 8.91 55.28 16.74l14.07 3.78 3.52 1 3.56.87 7.11 1.74 7.12 1.74c2.37.59 4.8 1.06 7.2 1.59l4.18.9v-4.4C624.93 820.7 610 817 595.26 813q-27.87-7.65-55.26-16.3z" transform="translate(532.19)" opacity=".65" fill="url(#aq)"/><path d="M540.79 810.88c-4.55-1.44-9.12-2.86-13.66-4.33l-13.59-4.48c-9.08-2.94-18-6.08-27-9.13-35.94-12.38-71.41-25.49-106.6-39s-70.08-27.37-104.76-41.52S206 683.9 171.66 669.26s-68.41-29.5-102.22-44.71l-.24-.1-.3.34.23.11q50.43 23.16 101.65 45.41t102.93 43.91q51.84 21.51 104.43 42.08c35.09 13.67 70.47 27 106.36 39.58 9 3.11 17.93 6.32 27 9.33l13.57 4.57c4.53 1.5 9.1 3 13.65 4.44Q566 823.13 594 831l14.06 3.77 3.52.95 3.56.87 7.12 1.74 7.11 1.74c2.37.59 4.8 1.06 7.2 1.59l3.42.74V838c-14.81-3.2-29.47-6.83-44-10.77-18.54-5.15-36.99-10.55-55.2-16.35z" transform="translate(532.19)" opacity=".6" fill="url(#ar)"/><path d="M533.44 673.8c-4.56-1.44-9.13-2.86-13.67-4.33L506.18 665c-9.08-2.94-18-6.08-27.05-9.13-35.94-12.39-71.41-25.5-106.6-39s-70.08-27.36-104.76-41.52-69.18-28.54-103.47-43.19-68.4-29.5-102.22-44.7l-.24-.11-.3.34.24.11q50.43 23.2 101.64 45.43t102.94 43.91q51.83 21.51 104.42 42.09c35.09 13.67 70.47 27 106.36 39.57 9 3.12 17.93 6.32 27 9.33l13.57 4.57c4.53 1.51 9.1 3 13.66 4.44q27.28 8.91 55.28 16.74l14.07 3.78 3.51.94 3.56.87 7.12 1.74L622 703c2.36.6 4.79 1.06 7.19 1.6l7.21 1.55 3.57.77v-4.44c-17.32-3.55-34.43-7.72-51.34-12.32-18.54-5.16-36.99-10.55-55.19-16.36z" transform="translate(532.19)" fill="url(#as)"/><path d="M534.12 686.52c-4.56-1.44-9.13-2.86-13.67-4.33l-13.58-4.47c-9.09-2.94-18-6.08-27.06-9.13-35.94-12.39-71.4-25.5-106.59-39s-70.08-27.37-104.76-41.52S199.28 559.54 165 544.9s-68.4-29.5-102.21-44.71l-.24-.1-.31.34.24.11Q112.89 523.7 164.1 546T267 589.86q51.84 21.51 104.42 42.08c35.09 13.67 70.47 27 106.36 39.58 9 3.12 17.93 6.32 27 9.33l13.56 4.57c4.54 1.51 9.11 3 13.66 4.44q27.29 8.91 55.28 16.74l14.07 3.77 3.52 1 3.55.87 7.12 1.74 7.12 1.74c2.37.6 4.8 1.06 7.19 1.6l7.22 1.55 2.88.62V715c-17.09-3.52-34-7.65-50.65-12.18q-27.82-7.65-55.18-16.3z" transform="translate(532.19)" fill="url(#at)"/><path d="M534.85 700.17c-4.55-1.45-9.13-2.87-13.67-4.34l-13.58-4.47c-9.08-2.94-18-6.08-27.06-9.13-35.94-12.38-71.4-25.5-106.59-39s-70.08-27.37-104.76-41.53-69.19-28.51-103.47-43.15S97.31 529 63.5 513.84l-.24-.11-.31.34.24.11q50.43 23.16 101.65 45.42t102.93 43.9q51.84 21.5 104.43 42.09c35.09 13.67 70.46 27 106.36 39.57 9 3.12 17.93 6.32 27 9.33l13.56 4.57c4.54 1.51 9.11 3 13.66 4.44q27.3 8.91 55.28 16.74l14.07 3.76 3.52.94 3.56.88 7.11 1.74 7.12 1.74c2.37.59 4.8 1.06 7.2 1.59l7.21 1.56 2.15.46v-4.42c-16.84-3.49-33.48-7.57-49.92-12-18.58-5.13-37.02-10.49-55.23-16.32z" transform="translate(532.19)" fill="url(#au)"/><path d="M535.58 713.81c-4.55-1.44-9.12-2.86-13.66-4.33L508.33 705c-9.08-2.94-18-6.08-27.05-9.13-35.94-12.39-71.41-25.5-106.6-39s-70.08-27.37-104.76-41.52-69.18-28.55-103.47-43.19S98 542.69 64.23 527.48l-.24-.1-.3.34.23.11q50.43 23.17 101.65 45.41t102.93 43.91q51.84 21.51 104.43 42.08c35.09 13.67 70.47 27 106.36 39.58 9 3.12 17.93 6.32 27 9.33l13.57 4.57c4.53 1.5 9.1 3 13.65 4.44q27.3 8.91 55.29 16.74l14.06 3.77 3.52 1 3.56.87 7.12 1.74 7.11 1.74c2.37.6 4.8 1.06 7.2 1.6l7.21 1.55 1.42.31V742c-16.59-3.45-33-7.48-49.19-11.88-18.57-5.12-37.02-10.51-55.23-16.31z" transform="translate(532.19)" fill="url(#av)"/><path d="M536.31 727.46c-4.55-1.45-9.12-2.87-13.66-4.34l-13.59-4.47c-9.08-2.94-18-6.08-27.05-9.13-35.94-12.39-71.41-25.5-106.6-39S305.33 643.18 270.65 629s-69.18-28.54-103.47-43.18S98.78 556.33 65 541.13l-.24-.11-.3.34.24.11q50.43 23.16 101.64 45.42t102.94 43.9q51.83 21.51 104.42 42.09c35.09 13.67 70.47 27 106.36 39.57 9 3.12 17.93 6.32 27 9.33l13.57 4.57c4.53 1.51 9.1 3 13.65 4.44q27.3 8.91 55.29 16.74l14.07 3.78 3.51.94 3.56.88 7.12 1.74 7.12 1.74c2.36.59 4.79 1 7.19 1.59l7.21 1.56.69.14v-4.41c-16.34-3.42-32.49-7.39-48.46-11.73-18.58-5.11-37.06-10.5-55.27-16.3z" transform="translate(532.19)" fill="url(#aw)"/></g><g data-name="Layer 1 copy 2"><path d="M34.36 0h-2.61a12.64 12.64 0 002.61 0z" transform="translate(532.19)" fill="url(#b)"/><path d="M200.18 78.8h.06c2.35 8.2 5.82 10.25 7.56 11V0h-18.52v78.09c4.54 2.82 9.83 1.04 10.9.71z" transform="translate(532.19)" fill="url(#ax)"/><path d="M227.19 92.06a.05.05 0 01.06 0c2.36 8.2 5.82 10.25 7.56 11V0h-18.52v91.36c4.54 2.81 9.83 1.04 10.9.7z" transform="translate(532.19)" fill="url(#ay)"/><path d="M92.13 25.74h.06C94.54 34 98 36 99.75 36.73V0H81.23v25c4.54 2.85 9.83 1.08 10.9.74z" transform="translate(532.19)" fill="url(#az)"/><path d="M119.14 39h.06c2.36 8.24 5.8 10.3 7.56 11V0h-18.52v38.3c4.54 2.82 9.83 1.04 10.9.7z" transform="translate(532.19)" fill="url(#aA)"/><path d="M65.12 12.48h.06c2.35 8.19 5.82 10.25 7.56 10.94V0H54.22v11.77c4.54 2.82 9.78 1.04 10.9.71z" transform="translate(532.19)" fill="url(#aB)"/><path d="M45.73 10.2V0H38.4c2.34 7.56 5.6 9.53 7.33 10.2z" transform="translate(532.19)" fill="url(#aC)"/><path d="M173.17 65.54h.06c2.35 8.2 5.82 10.26 7.56 11V0h-18.52v64.83c4.54 2.82 9.82 1.04 10.9.71z" transform="translate(532.19)" fill="url(#aD)"/><path d="M146.15 52.27a.06.06 0 01.07 0c2.35 8.2 5.81 10.25 7.56 10.95V0h-18.53v51.56c4.55 2.82 9.83 1.04 10.9.71z" transform="translate(532.19)" fill="url(#aE)"/><path d="M524.33 238a.05.05 0 01.06 0c2.35 8.2 5.82 10.25 7.56 11V0h-18.52v237.27c4.57 2.81 9.83 1.04 10.9.73z" transform="translate(532.19)" fill="url(#aF)"/><path d="M551.34 251.24h.06c2.36 8.19 5.82 10.25 7.56 10.94V0h-18.52v250.53c4.56 2.82 9.83 1.04 10.9.71z" transform="translate(532.19)" fill="url(#aG)"/><path d="M497.32 224.71h.06c2.35 8.2 5.82 10.25 7.56 10.95V0h-18.52v224c4.58 2.82 9.82 1 10.9.71z" transform="translate(532.19)" fill="url(#aH)"/><path d="M254.2 105.33a.06.06 0 01.07 0c2.35 8.2 5.81 10.25 7.56 10.95V0H243.3v104.62c4.55 2.82 9.83 1.04 10.9.71z" transform="translate(532.19)" fill="url(#aI)"/><path d="M578.35 264.5a.06.06 0 01.07 0c2.35 8.2 5.82 10.25 7.56 10.95V0h-18.53v263.8c4.55 2.81 9.83 1.04 10.9.7z" transform="translate(532.19)" fill="url(#aJ)"/><path d="M470.3 211.44a.07.07 0 01.07 0c2.35 8.2 5.82 10.25 7.56 11V0H459.4v210.74c4.6 2.81 9.83 1.04 10.9.7z" transform="translate(532.19)" fill="url(#aK)"/><path d="M605.37 277.77h.06c2.35 8.19 5.82 10.25 7.56 10.94V0h-18.52v277.06c4.53 2.82 9.82 1.04 10.9.71z" transform="translate(532.19)" fill="url(#aL)"/><path d="M632.38 291h.06c2.35 8.2 5.82 10.25 7.56 10.95V0h-18.52v290.33c4.52 2.81 9.83 1.03 10.9.67z" transform="translate(532.19)" fill="url(#aM)"/><path d="M335.24 145.12h.06c2.36 8.2 5.82 10.25 7.56 11V0h-18.52v144.42c4.55 2.81 9.83 1.04 10.9.7z" transform="translate(532.19)" fill="url(#aN)"/><path d="M308.23 131.86h.06c2.35 8.19 5.82 10.25 7.56 10.94V0h-18.52v131.15c4.54 2.85 9.83 1.04 10.9.71z" transform="translate(532.19)" fill="url(#aO)"/><path d="M281.22 118.59a.06.06 0 01.06 0c2.35 8.2 5.82 10.25 7.56 11V0h-18.52v117.89c4.54 2.81 9.82 1.04 10.9.7z" transform="translate(532.19)" fill="url(#aP)"/><path d="M362.25 158.39a.06.06 0 01.07 0c2.35 8.19 5.81 10.25 7.56 10.94V0h-18.53v157.68c4.55 2.82 9.83 1.04 10.9.71z" transform="translate(532.19)" fill="url(#aQ)"/><path d="M416.28 184.92h.06c2.35 8.2 5.82 10.26 7.56 11V0h-18.52v184.21c4.54 2.79 9.83 1.04 10.9.71z" transform="translate(532.19)" fill="url(#aR)"/><path d="M389.27 171.65h.06c2.35 8.2 5.82 10.25 7.56 10.95V0h-18.52v171c4.54 2.76 9.82 1 10.9.65z" transform="translate(532.19)" fill="url(#aS)"/><path d="M443.29 198.18h.06c2.36 8.2 5.82 10.25 7.56 10.95V0h-18.52v197.47c4.55 2.82 9.83 1.04 10.9.71z" transform="translate(532.19)" fill="url(#aT)"/></g></g></svg>